<svg xmlns="http://www.w3.org/2000/svg" xmlns:xlink="http://www.w3.org/1999/xlink" viewBox="0 0 729.36 1446.72"><defs><linearGradient id="a" x1="701.687" y1="559.8827" x2="701.687" y2="406.2561" gradientUnits="userSpaceOnUse"><stop offset="0.00382" stop-color="#282828"/><stop offset="0.00878" stop-color="#313131"/><stop offset="0.01688" stop-color="#494949"/><stop offset="0.02711" stop-color="#717171"/><stop offset="0.03897" stop-color="#a8a8a8"/><stop offset="0.04195" stop-color="#b7b7b7"/><stop offset="0.06047" stop-color="#8a8a8a"/><stop offset="0.08165" stop-color="#515151"/><stop offset="0.91225" stop-color="#515151"/><stop offset="0.93548" stop-color="#878787"/><stop offset="0.95313" stop-color="#aaa"/><stop offset="0.96264" stop-color="#b7b7b7"/><stop offset="0.97302" stop-color="#828282"/><stop offset="0.98265" stop-color="#585858"/><stop offset="0.99019" stop-color="#3f3f3f"/><stop offset="0.9947" stop-color="#353535"/></linearGradient><linearGradient id="b" x1="20.5428" y1="332.50694" x2="20.5428" y2="282.33894" xlink:href="#a"/><linearGradient id="c" x1="20.5428" y1="468.74672" x2="20.5428" y2="374.11244" xlink:href="#a"/><linearGradient id="d" x1="20.5428" y1="591.00914" x2="20.5428" y2="495.78489" xlink:href="#a"/></defs><g style="isolation:isolate"><path d="M113.35228,57.492H612.41822A60.00008,60.00008,0,0,1,672.4183,117.492V1329.00185a60,60,0,0,1-60,60h-499.066a60.00008,60.00008,0,0,1-60.00008-60.00008V117.492A60.00008,60.00008,0,0,1,113.35228,57.492Z" fill="#00b6ef" opacity="0.9"/><image width="2707" height="3081" transform="translate(40.08 664.8) scale(0.24)" opacity="0.35" xlink:href="homeScreenApp1.png"/><path d="M604.84736,1375.1162H101.78126a58,58,0,0,1-58-58V766.27775a100,100,0,0,1,100-100h419.0661a100,100,0,0,1,100,100V1317.1162A58,58,0,0,1,604.84736,1375.1162Z" transform="translate(9.57094 13.88565)" fill="#fff" fill-rule="evenodd"/><path d="M604.84736,1375.1162H101.78126a58,58,0,0,1-58-58V766.27775a100,100,0,0,1,100-100h419.0661a100,100,0,0,1,100,100V1317.1162A58,58,0,0,1,604.84736,1375.1162Z" transform="translate(9.57094 13.88565)" fill="none" stroke="#ccc" stroke-miterlimit="10" stroke-width="0.25"/><image width="2423" height="673" transform="translate(74.4 915.12) scale(0.24)" opacity="0.71" xlink:href="homeScreenApp2.png" style="mix-blend-mode:multiply"/><path d="M89.86243,928.15616H636.63408a2.2731,2.2731,0,0,1,2.2731,2.2731v126.878a2.2731,2.2731,0,0,1-2.2731,2.2731H89.86233a2.273,2.273,0,0,1-2.273-2.273V930.42926a2.2731,2.2731,0,0,1,2.2731-2.2731Z" fill="#fff"/><text transform="translate(251.19233 1005.42654) scale(0.9502 1)" font-size="31.89733" fill="#545454" font-family="Karla-Bold, Karla" font-weight="700">Mobile, AL</text><rect x="105.87339" y="948.54743" width="83.00378" height="87.35369" rx="3.24" fill="#54bfb6"/><path d="M138.00635,953.39536c-9.01483,0-16.34887,8.154-16.34887,18.17679a19.67152,19.67152,0,0,0,2.44042,9.55822l12.97791,23.252a1.33766,1.33766,0,0,0,1.15761.716h.01069a1.34244,1.34244,0,0,0,1.15815-.7364l12.647-23.47714a19.71758,19.71758,0,0,0,2.306-9.31267C154.35532,961.5494,147.02118,953.39536,138.00635,953.39536Zm11.70457,25.93408-11.49811,21.34443-11.79892-21.13963a16.40339,16.40339,0,0,1-2.04976-7.96209c0-8.35229,6.12986-15.16752,13.64222-15.16752,7.51246,0,13.63327,6.81523,13.63327,15.16752A16.43337,16.43337,0,0,1,149.71092,979.32944Z" transform="translate(9.57094 13.88565)" fill="#fff"/><path d="M138.00635,962.48382c-4.50731,0-8.17438,4.077-8.17438,9.08833,0,4.97937,3.60741,9.08846,8.17438,9.08846,4.62346,0,8.17449-4.16378,8.17449-9.08846C146.18084,966.56078,142.51376,962.48382,138.00635,962.48382Zm0,15.16752c-3.02054,0-5.46773-2.7299-5.46773-6.07919,0-3.34091,2.46289-6.07906,5.46773-6.07906,3.00494,0,5.45878,2.73815,5.45878,6.07906C143.46513,974.87257,141.075,977.65134,138.00635,977.65134Z" transform="translate(9.57094 13.88565)" fill="#fff"/><image width="2423" height="673" transform="translate(74.4 1080.24) scale(0.24)" opacity="0.71" xlink:href="homeScreenApp3.png"/><path d="M89.86243,1093.2799H636.63408a2.2731,2.2731,0,0,1,2.2731,2.2731v126.878a2.2731,2.2731,0,0,1-2.2731,2.2731H89.86233a2.273,2.273,0,0,1-2.273-2.273V1095.553A2.2731,2.2731,0,0,1,89.86243,1093.2799Z" fill="#fff"/><text transform="translate(251.19233 1170.55057) scale(0.9502 1)" font-size="31.89733" fill="#545454" font-family="Karla-Bold, Karla" font-weight="700">Huntsville, AL</text><rect x="105.87339" y="1113.67116" width="83.00378" height="87.35369" rx="3.24" fill="#54bfb6"/><path d="M138.00635,1118.51909c-9.01483,0-16.34887,8.154-16.34887,18.1768a19.67151,19.67151,0,0,0,2.44042,9.55821l12.97791,23.252a1.33766,1.33766,0,0,0,1.15761.716h.01069a1.34244,1.34244,0,0,0,1.15815-.7364l12.647-23.47714a19.71757,19.71757,0,0,0,2.306-9.31266C154.35532,1126.67313,147.02118,1118.51909,138.00635,1118.51909Zm11.70457,25.93408-11.49811,21.34443L126.41389,1144.658a16.40338,16.40338,0,0,1-2.04976-7.96208c0-8.3523,6.12986-15.16753,13.64222-15.16753,7.51246,0,13.63327,6.81523,13.63327,15.16753A16.43336,16.43336,0,0,1,149.71092,1144.45317Z" transform="translate(9.57094 13.88565)" fill="#fff"/><path d="M138.00635,1127.60755c-4.50731,0-8.17438,4.077-8.17438,9.08834,0,4.97936,3.60741,9.08845,8.17438,9.08845,4.62346,0,8.17449-4.16378,8.17449-9.08845C146.18084,1131.68451,142.51376,1127.60755,138.00635,1127.60755Zm0,15.16752c-3.02054,0-5.46773-2.7299-5.46773-6.07918,0-3.34092,2.46289-6.07907,5.46773-6.07907,3.00494,0,5.45878,2.73815,5.45878,6.07907C143.46513,1139.9963,141.075,1142.77507,138.00635,1142.77507Z" transform="translate(9.57094 13.88565)" fill="#fff"/><image width="2423" height="674" transform="translate(74.4 753.12) scale(0.24)" opacity="0.71" xlink:href="homeScreenApp4.png" style="mix-blend-mode:multiply"/><path d="M89.86243,766.21682H636.63408a2.2731,2.2731,0,0,1,2.2731,2.2731v126.878a2.2731,2.2731,0,0,1-2.2731,2.2731H89.86233a2.273,2.273,0,0,1-2.273-2.273V768.48992a2.2731,2.2731,0,0,1,2.2731-2.2731Z" fill="#fff"/><text transform="translate(251.19233 843.48709) scale(0.9502 1)" font-size="31.89733" fill="#545454" font-family="Karla-Bold, Karla" font-weight="700"><tspan letter-spacing="-0.083em">T</tspan><tspan x="14.32156" y="0">uscaloosa, AL</tspan></text><rect x="105.87339" y="786.60809" width="83.00378" height="87.35369" rx="3.24" fill="#54bfb6"/><path d="M137.80429,790.54779c-9.01483,0-16.34887,8.154-16.34887,18.17679a19.67155,19.67155,0,0,0,2.44042,9.55822l12.97791,23.252a1.33766,1.33766,0,0,0,1.15761.716h.01069a1.34245,1.34245,0,0,0,1.15815-.73641l12.647-23.47713a19.71758,19.71758,0,0,0,2.306-9.31267C154.15326,798.70183,146.81912,790.54779,137.80429,790.54779Zm11.70457,25.93407L138.01075,837.8263l-11.79892-21.13963a16.40339,16.40339,0,0,1-2.04976-7.96209c0-8.35229,6.12986-15.16752,13.64222-15.16752,7.51246,0,13.63327,6.81523,13.63327,15.16752A16.4333,16.4333,0,0,1,149.50886,816.48186Z" transform="translate(9.57094 13.88565)" fill="#fff"/><path d="M137.80429,799.63625c-4.50731,0-8.17438,4.077-8.17438,9.08833,0,4.97937,3.60741,9.08846,8.17438,9.08846,4.62346,0,8.17449-4.16378,8.17449-9.08846C145.97878,803.7132,142.3117,799.63625,137.80429,799.63625Zm0,15.16752c-3.02054,0-5.46773-2.7299-5.46773-6.07919,0-3.34092,2.46289-6.07906,5.46773-6.07906,3.00494,0,5.45878,2.73814,5.45878,6.07906C143.26307,812.025,140.87292,814.80377,137.80429,814.80377Z" transform="translate(9.57094 13.88565)" fill="#fff"/><image width="2423" height="673" transform="translate(74.16 1243.44) scale(0.24)" opacity="0.71" xlink:href="homeScreenApp5.png"/><path d="M89.49943,1256.48665H636.27107a2.2731,2.2731,0,0,1,2.2731,2.2731v126.878a2.2731,2.2731,0,0,1-2.2731,2.2731H89.49933a2.273,2.273,0,0,1-2.273-2.273V1258.75975A2.2731,2.2731,0,0,1,89.49943,1256.48665Z" fill="#fff"/><rect x="106.18225" y="1278.75882" width="84.29809" height="86.87988" rx="3.24" fill="#54bfb6"/><text transform="translate(244.81245 1338.32791) scale(0.9519 1)" font-size="31.89733" fill="#545454" font-family="Karla-Bold, Karla" font-weight="700"><tspan letter-spacing="-0.08301em">T</tspan><tspan x="14.32162" y="0">uscaloosa, AL</tspan></text><path d="M138.76036,1283.05713c-9.01484,0-16.34887,8.154-16.34887,18.1768a19.67155,19.67155,0,0,0,2.44042,9.55822l12.97791,23.252a1.33764,1.33764,0,0,0,1.15761.716h.01069a1.34245,1.34245,0,0,0,1.15815-.73641l12.647-23.47713a19.7175,19.7175,0,0,0,2.30606-9.31267C155.10933,1291.21117,147.77518,1283.05713,138.76036,1283.05713Zm11.70457,25.93408-11.49812,21.34444L127.1679,1309.196a16.40339,16.40339,0,0,1-2.04976-7.96209c0-8.3523,6.12986-15.16752,13.64222-15.16752,7.51246,0,13.63327,6.81522,13.63327,15.16752A16.43342,16.43342,0,0,1,150.46493,1308.99121Z" transform="translate(9.57094 13.88565)" fill="#fff"/><path d="M138.76036,1292.14559c-4.50731,0-8.17438,4.077-8.17438,9.08834,0,4.97937,3.60741,9.08846,8.17438,9.08846,4.62345,0,8.17448-4.16378,8.17448-9.08846C146.93484,1296.22255,143.26777,1292.14559,138.76036,1292.14559Zm0,15.16752c-3.02055,0-5.46773-2.72989-5.46773-6.07918,0-3.34092,2.46289-6.07906,5.46773-6.07906,3.00494,0,5.45878,2.73814,5.45878,6.07906C144.21914,1304.53435,141.829,1307.31311,138.76036,1307.31311Z" transform="translate(9.57094 13.88565)" fill="#fff"/><path d="M660.63471,763.85718h.00024a4.49988,4.49988,0,0,1,4.49988,4.49988v542.98181a4.50011,4.50011,0,0,1-4.50011,4.50011h0a4.49988,4.49988,0,0,1-4.49988-4.49988v-542.982a4.49988,4.49988,0,0,1,4.49988-4.49988Z" fill="none" stroke="#727272" stroke-miterlimit="10" stroke-width="0.2"/><rect x="659.50282" y="768.46549" width="2.26402" height="522.27917" rx="1.1" fill="#9b9a9a"/><g opacity="0.6"><path d="M599.08831,427.758c0-13.6259-10.64666-24.67175-23.7797-24.67175a23.00828,23.00828,0,0,0-5.70827.72046,49.1681,49.1681,0,0,0,.24973-4.93368c0-25.94228-20.26946-46.97278-45.27336-46.97278-23.41731,0-42.68076,18.44711-45.03118,42.09886a28.70286,28.70286,0,0,0-5.37985-.51519c-16.35637,0-29.61569,13.75692-29.61569,30.72711a31.8852,31.8852,0,0,0,.898,7.52487h153.3284A25.73521,25.73521,0,0,0,599.08831,427.758Z" transform="translate(9.57094 13.88565)" fill="#fff"/></g><g opacity="0.6"><path d="M404.77348,520.60472c0-22.34929-22.1487-40.46717-49.47049-40.46717a60.04489,60.04489,0,0,0-11.87553,1.1822,63.88162,63.88162,0,0,0,.51981-8.09276c0-42.55021-42.16844-77.04477-94.18648-77.04477-48.71743,0-88.79231,30.25684-93.682,69.05074a75.26872,75.26872,0,0,0-11.19187-.8448c-34.02783,0-61.6122,22.5642-61.6122,50.39873a41.84032,41.84032,0,0,0,1.86821,12.34237H404.12452A33.50827,33.50827,0,0,0,404.77348,520.60472Z" transform="translate(9.57094 13.88565)" fill="#fff"/></g><text transform="translate(148.48042 618.63357) scale(0.96383 1)" font-size="33.85402" fill="#00427c" font-family="Rubik-Regular, Rubik">Select<tspan x="99.12343" y="0" letter-spacing="-0.027em"> </tspan><tspan x="106.50366" y="0" letter-spacing="-0.01799em">y</tspan><tspan x="124.58136" y="0" letter-spacing="0.00003em">ou</tspan><tspan x="164.39346" y="0" letter-spacing="-0.02299em">r</tspan><tspan x="176.47903" y="0" xml:space="preserve"> cur</tspan><tspan x="236.70327" y="0" letter-spacing="-0.00997em">r</tspan><tspan x="249.2296" y="0">e</tspan><tspan x="268.18779" y="0" letter-spacing="-0.007em">n</tspan><tspan x="288.46619" y="0">t loc</tspan><tspan x="356.34219" y="0" letter-spacing="-0.00497em">a</tspan><tspan x="374.86065" y="0">tion:</tspan></text><path d="M104.84978,142.39835H96.46646a.89584.89584,0,0,0-.5801.2,1.07822,1.07822,0,0,0-.46782.89991V192.6935H91.95669V143.49824a1.02755,1.02755,0,0,0-.99178-1.0599H85.50078a1.02754,1.02754,0,0,0-.99177,1.0599v50.21517a1.05871,1.05871,0,0,0,.89821,1.09989,1.01214,1.01214,0,0,0,1.08093-.95516q.00463-.05223.00441-.10473V144.55814h3.48058v49.19527a1.02753,1.02753,0,0,0,.99177,1.05989h5.50155a1.02754,1.02754,0,0,0,.99178-1.05989V145.31807a.7755.7755,0,0,1,.74851-.79993h6.62432c8.59852-.013,15.57884,7.42578,15.591,16.61491q.00024.18174-.00324.36346c.17572,9.17617-6.64248,16.76715-15.22888,16.95494q-.1794.00393-.35885.00343h-1.87128v-3.1997h.8795c7.04117.01207,12.78919-6.015,12.91181-13.5387,0-7.73124-5.86459-13.99865-13.09893-13.99865h-1.66543a1.02754,1.02754,0,0,0-.99178,1.0599v5.59946a1.09877,1.09877,0,0,0,.46782.89991.92036.92036,0,0,0,.63623.26h.99178a5.82091,5.82091,0,0,1,.30409,11.5939q-.10521.00469-.21054.005h-1.10405a1.06223,1.06223,0,0,0-.00189,2.11979h1.08723a7.72478,7.72478,0,0,0,7.48511-7.61927,7.64105,7.64105,0,0,0-7.222-7.998q-.06607-.00126-.13216-.00125h-.24327v-3.79963h.69238c6.12851-.011,11.105,5.28939,11.11536,11.83885l0,.02c-.1127,6.40781-5.04394,11.517-11.04052,11.4389H101.9493a1.02753,1.02753,0,0,0-.99177,1.0599v5.31949a1.03065,1.03065,0,0,0,.97288,1.07971l.01889.00018h2.90048c9.68365.024,17.552-8.3459,17.57447-18.69469q.00043-.20175-.00319-.40347c.19642-10.33565-7.48453-18.8845-17.15589-19.09441Q105.0575,142.39759,104.84978,142.39835Z" transform="translate(9.57094 13.88565)" fill="#fff"/><path d="M135.13689,142.26135h6.627c4.66992,0,8.13086,1.70654,8.13086,6.82617,0,4.93652-3.47364,7.17822-8.00293,7.17822h-3.02344v8.13965h-3.73145Zm6.44629,10.8623c3.13965,0,4.63184-1.314,4.63184-4.03613,0-2.74951-1.63379-3.68408-4.76074-3.68408h-2.58594v7.72021Z" transform="translate(9.57094 13.88565)" fill="#fff"/><path d="M151.78728,156.10314c0-5.53955,3.57618-8.73584,7.51368-8.73584s7.51367,3.19629,7.51367,8.73584c0,5.51221-3.57617,8.7085-7.51367,8.7085S151.78728,161.61535,151.78728,156.10314Zm11.21875,0c0-3.33154-1.38867-5.55273-3.70507-5.55273-2.31543,0-3.70508,2.22119-3.70508,5.55273s1.38965,5.52588,3.70508,5.52588C161.61736,161.629,163.006,159.43469,163.006,156.10314Z" transform="translate(9.57094 13.88565)" fill="#fff"/><path d="M168.715,147.77355h3.71777l1.917,8.62745c.3086,1.61181.541,3.16943.82325,4.79443h.1289c.3086-1.625.61817-3.22315,1.00391-4.79443l2.07129-8.62745h3.3584l2.10937,8.62745c.38672,1.61181.69531,3.16943,1.042,4.79443h.12891c.30859-1.625.541-3.18262.84961-4.79443l1.89062-8.62745H191.218L187.216,164.40539h-4.4004l-1.85253-7.76074c-.334-1.55713-.61719-3.08789-.95215-4.82813H179.882c-.30859,1.74024-.57812,3.29785-.93848,4.85547l-1.78906,7.7334H172.883Z" transform="translate(9.57094 13.88565)" fill="#fff"/><path d="M193.12322,156.10314c0-5.4038,3.56348-8.73584,7.28223-8.73584,4.27148,0,6.52344,3.25049,6.52344,7.896a10.57872,10.57872,0,0,1-.16114,1.896H196.73846c.30859,2.95263,2.11035,4.63232,4.65722,4.63232a6.50721,6.50721,0,0,0,3.667-1.20557l1.26074,2.42432a9.47042,9.47042,0,0,1-5.416,1.80127C196.5451,164.81164,193.12322,161.5885,193.12322,156.10314Zm10.60156-1.59814c0-2.55957-1.08105-4.11719-3.24218-4.11719-1.83985,0-3.46094,1.44922-3.78223,4.11719Z" transform="translate(9.57094 13.88565)" fill="#fff"/><path d="M210.47478,147.77355h3.03614l.2832,2.96631h.10352c1.125-2.167,2.79785-3.37256,4.49023-3.37256a3.844,3.844,0,0,1,1.78809.33887l-.64356,3.38574a5.10227,5.10227,0,0,0-1.62109-.271c-1.26074,0-2.7793.90771-3.73145,3.44043v10.144h-3.70508Z" transform="translate(9.57094 13.88565)" fill="#fff"/><path d="M221.35369,161.568l2.17383-2.69532a8.07012,8.07012,0,0,0,5.48144,2.52588c2.36719,0,3.667-1.13086,3.667-2.85742,0-1.82178-1.35743-2.40429-3.26856-3.25732l-2.875-1.314c-2.07129-.90722-4.25293-2.63427-4.25293-5.87109,0-3.52832,2.96-6.24365,7.06348-6.24365a8.99587,8.99587,0,0,1,6.48535,2.82373l-1.917,2.49218a6.59585,6.59585,0,0,0-4.56836-1.90283c-1.99414,0-3.293.98194-3.293,2.60059,0,1.74023,1.60156,2.3833,3.34473,3.13525l2.83691,1.25244c2.50293,1.09717,4.25293,2.76319,4.25293,5.97315,0,3.58887-2.83105,6.582-7.55273,6.582A10.56128,10.56128,0,0,1,221.35369,161.568Z" transform="translate(9.57094 13.88565)" fill="#fff"/><path d="M238.96209,156.10314c0-5.53955,3.71777-8.73584,7.92578-8.73584a6.57254,6.57254,0,0,1,4.61816,1.86914l-1.80078,2.53272a3.78279,3.78279,0,0,0-2.625-1.21875c-2.54687,0-4.30957,2.22119-4.30957,5.55273S244.507,161.629,246.965,161.629a5.067,5.067,0,0,0,3.26758-1.43554l1.50586,2.57324a7.57958,7.57958,0,0,1-5.16016,2.04492C242.26873,164.81164,238.96209,161.61535,238.96209,156.10314Z" transform="translate(9.57094 13.88565)" fill="#fff"/><path d="M254.86541,140.48742h3.70508v6.18945l-.1543,3.20948a7.1579,7.1579,0,0,1,5.05664-2.519c3.38379,0,4.86328,2.41114,4.86328,6.60938v10.42871H264.631v-9.92773c0-2.73584-.74609-3.76514-2.458-3.76514-1.38868,0-2.30274.71826-3.60254,2.07226v11.62061h-3.70508Z" transform="translate(9.57094 13.88565)" fill="#fff"/><path d="M271.77361,156.10314c0-5.53955,3.57617-8.73584,7.51367-8.73584s7.51368,3.19629,7.51368,8.73584c0,5.51221-3.57618,8.7085-7.51368,8.7085S271.77361,161.61535,271.77361,156.10314Zm11.21875,0c0-3.33154-1.38867-5.55273-3.70508-5.55273-2.31543,0-3.70507,2.22119-3.70507,5.55273s1.38964,5.52588,3.70507,5.52588C281.60369,161.629,282.99236,159.43469,282.99236,156.10314Z" transform="translate(9.57094 13.88565)" fill="#fff"/><path d="M289.43377,156.10314c0-5.53955,3.57617-8.73584,7.51367-8.73584s7.51367,3.19629,7.51367,8.73584c0,5.51221-3.57617,8.7085-7.51367,8.7085S289.43377,161.61535,289.43377,156.10314Zm11.21875,0c0-3.33154-1.38867-5.55273-3.70508-5.55273-2.31543,0-3.70508,2.22119-3.70508,5.55273s1.38965,5.52588,3.70508,5.52588C299.26385,161.629,300.65252,159.43469,300.65252,156.10314Z" transform="translate(9.57094 13.88565)" fill="#fff"/><path d="M307.94256,160.1256V140.48742h3.70508v19.84131c0,.96143.41211,1.30029.79785,1.30029a2.05737,2.05737,0,0,0,.5791-.06787l.46289,2.91211a4.9595,4.9595,0,0,1-1.95508.33838C308.9074,164.81164,307.94256,163.024,307.94256,160.1256Z" transform="translate(9.57094 13.88565)" fill="#fff"/><path d="M135.03435,184.78674V172.35363h3.73145v12.731c0,4.82178,1.71094,6.40625,4.25879,6.40625,2.57324,0,4.34863-1.58447,4.34863-6.40625v-12.731h3.58985v12.43311c0,7.27295-3.0625,10.11718-7.93848,10.11718C138.14764,194.90392,135.03435,192.05969,135.03435,184.78674Z" transform="translate(9.57094 13.88565)" fill="#fff"/><path d="M155.88592,177.86584h3.03613l.2832,2.24853h.10352c1.415-1.44921,3.02344-2.65478,5.18457-2.65478,3.38379,0,4.86328,2.41064,4.86328,6.60937v10.42871h-3.70508v-9.92773c0-2.73584-.74609-3.76514-2.458-3.76514-1.38867,0-2.30273.71778-3.60253,2.07227v11.6206h-3.70508Z" transform="translate(9.57094 13.88565)" fill="#fff"/><path d="M173.47478,172.7467a2.29209,2.29209,0,1,1,2.29,2.20752A2.16521,2.16521,0,0,1,173.47478,172.7467Zm.42481,5.11914h3.70508v16.63183h-3.70508Z" transform="translate(9.57094 13.88565)" fill="#fff"/><path d="M180.35857,177.86584h3.75684l2.50879,8.62744c.4375,1.63867.90137,3.34522,1.33887,5.01123h.12793c.4375-1.666.90136-3.37256,1.33886-5.01123l2.50879-8.62744h3.57617l-5.36523,16.63183h-4.28418Z" transform="translate(9.57094 13.88565)" fill="#fff"/><path d="M197.0158,186.19543c0-5.40381,3.56348-8.73584,7.28223-8.73584,4.27148,0,6.52343,3.25049,6.52343,7.896a10.57883,10.57883,0,0,1-.16113,1.896H200.631c.3086,2.95264,2.11036,4.63233,4.65723,4.63233a6.50718,6.50718,0,0,0,3.667-1.20557l1.26075,2.42432a9.47041,9.47041,0,0,1-5.416,1.80126C200.43768,194.90392,197.0158,191.68078,197.0158,186.19543Zm10.60156-1.59815c0-2.55957-1.08105-4.11718-3.24218-4.11718-1.83985,0-3.46094,1.44922-3.78223,4.11718Z" transform="translate(9.57094 13.88565)" fill="#fff"/><path d="M214.36639,177.86584h3.03613l.2832,2.96631h.10352c1.125-2.167,2.79785-3.37256,4.49023-3.37256a3.844,3.844,0,0,1,1.78809.33887l-.64356,3.38574a5.102,5.102,0,0,0-1.62109-.271c-1.26074,0-2.7793.90772-3.73145,3.44043v10.144h-3.70507Z" transform="translate(9.57094 13.88565)" fill="#fff"/><path d="M224.60271,192.588l1.72364-2.47852a6.78525,6.78525,0,0,0,4.36133,1.85547c1.7246,0,2.53515-.853,2.53515-1.99072,0-1.395-1.71094-2.01807-3.39648-2.69532-2.07129-.81933-4.43946-2.07226-4.43946-4.84863,0-2.88476,2.21289-4.9707,5.752-4.9707a8.26131,8.26131,0,0,1,5.249,1.99121l-1.69824,2.397a5.74254,5.74254,0,0,0-3.46094-1.44922c-1.58887,0-2.3418.79932-2.3418,1.84229,0,1.31348,1.59571,1.81445,3.30664,2.478,2.13575.83984,4.5293,1.92334,4.5293,5.0249,0,2.85791-2.14941,5.16015-6.13769,5.16015A9.58662,9.58662,0,0,1,224.60271,192.588Z" transform="translate(9.57094 13.88565)" fill="#fff"/><path d="M239.6115,172.7467a2.29209,2.29209,0,1,1,2.29,2.20752A2.16521,2.16521,0,0,1,239.6115,172.7467Zm.42481,5.11914h3.70508v16.63183h-3.70508Z" transform="translate(9.57094 13.88565)" fill="#fff"/><path d="M249.01775,188.89074V180.9674H246.7658v-2.92529l2.44434-.17627.4375-4.53711h3.07519v4.53711h4.02735v3.10156h-4.02735v7.91651c0,1.957.7207,2.91845,2.23828,2.91845a4.74922,4.74922,0,0,0,1.64746-.3789l.62989,2.87109a9.7928,9.7928,0,0,1-3.2295.60937C250.36834,194.90392,249.01775,192.47961,249.01775,188.89074Z" transform="translate(9.57094 13.88565)" fill="#fff"/><path d="M259.06072,200.985l.68164-3.02a4.185,4.185,0,0,0,1.13282.23c1.65917,0,2.625-1.19189,3.15234-2.85742l.2959-1.043-6.21485-16.42871h3.75684l2.72754,8.15332c.47656,1.47656.92676,3.11523,1.38965,4.69971h.1289c.39942-1.544.79785-3.18262,1.21-4.69971l2.3545-8.15332h3.57617L267.54021,195.256c-1.3125,3.74511-2.97265,6.06787-6.42089,6.06787A5.8885,5.8885,0,0,1,259.06072,200.985Z" transform="translate(9.57094 13.88565)" fill="#fff"/><text transform="translate(89.16694 330.11306) scale(0.96383 1)" font-size="50" fill="#00427c" font-family="Rubik-Regular, Rubik">Hello!<tspan x="128.9483" y="0" letter-spacing="-0.01599em"> </tspan><tspan x="140.3986" y="0" letter-spacing="-0.02101em">W</tspan><tspan x="179.3981" y="0">elcome</tspan><tspan x="348.29629" y="0" letter-spacing="-0.02099em"> </tspan><tspan x="359.49632" y="0">to PSU!</tspan></text><path d="M512.66334,96.262h2.85989a1.01732,1.01732,0,0,1,1.01732,1.01732v4.92537a1.01753,1.01753,0,0,1-1.01753,1.01753h-2.85947a1.01753,1.01753,0,0,1-1.01753-1.01753V97.27935A1.01732,1.01732,0,0,1,512.66334,96.262Z"/><path d="M521.22917,92.591h2.85952a1.01746,1.01746,0,0,1,1.01746,1.01746v8.5963a1.01753,1.01753,0,0,1-1.01753,1.01753h-2.85953a1.01731,1.01731,0,0,1-1.01731-1.01731v-8.5966A1.01739,1.01739,0,0,1,521.22917,92.591Z"/><path d="M529.79491,88.91988h2.85982a1.01731,1.01731,0,0,1,1.01731,1.01731v12.26753a1.01753,1.01753,0,0,1-1.01753,1.01753h-2.85968a1.01746,1.01746,0,0,1-1.01746-1.01746V89.93741A1.01754,1.01754,0,0,1,529.79491,88.91988Z"/><path d="M538.36051,85.2488h2.85982a1.01761,1.01761,0,0,1,1.01761,1.01761v15.93831a1.01753,1.01753,0,0,1-1.01753,1.01753h-2.86a1.01746,1.01746,0,0,1-1.01746-1.01746V86.26634A1.01754,1.01754,0,0,1,538.36051,85.2488Z"/><path d="M541.33968,75.63309A1.22357,1.22357,0,0,0,543.07,77.36356a14.07568,14.07568,0,0,1,19.883,0,1.22357,1.22357,0,1,0,1.73032-1.73047A16.52443,16.52443,0,0,0,541.33968,75.63309Z" transform="translate(9.57094 13.88565)"/><path d="M545.70151,79.99553a1.22357,1.22357,0,1,0,1.73047,1.73032,7.90093,7.90093,0,0,1,11.15827,0,1.22357,1.22357,0,0,0,1.73047-1.73032A10.34753,10.34753,0,0,0,545.70151,79.99553Z" transform="translate(9.57094 13.88565)"/><path d="M550.00374,84.29805a1.224,1.224,0,0,0-.10025,1.61628l2.14155,2.75438a1.22355,1.22355,0,0,0,1.93215,0l2.142-2.75438a1.2241,1.2241,0,0,0-.10054-1.61628A4.35547,4.35547,0,0,0,550.00374,84.29805Z" transform="translate(9.57094 13.88565)"/><rect x="586.84535" y="87.33099" width="21.63555" height="13.85482"/><path d="M614.43942,70.2156h-36.6912a3.56021,3.56021,0,0,0-3.55586,3.55578V86.97421a3.56,3.56,0,0,0,3.55586,3.55569h36.6912a3.56,3.56,0,0,0,3.55555-3.55569V73.77138A3.56014,3.56014,0,0,0,614.43942,70.2156Zm2.3318,16.75861a2.33481,2.33481,0,0,1-2.3318,2.33218h-36.6912a2.33469,2.33469,0,0,1-2.33211-2.33218V73.77138a2.33456,2.33456,0,0,1,2.33211-2.332h36.6912a2.33468,2.33468,0,0,1,2.3318,2.332Z" transform="translate(9.57094 13.88565)"/><path d="M620.28348,76.50552a.61125.61125,0,0,0-.61187.61187v6.51095a.61135.61135,0,0,0,.61187.61187,3.86735,3.86735,0,1,0,0-7.73469Zm.61187,6.43933v-5.144a2.6437,2.6437,0,0,1,0,5.144Z" transform="translate(9.57094 13.88565)"/><path d="M107.19423,89.83373V75.12916l-4.27308,2.49251V74.14048a18.72838,18.72838,0,0,0,6.51-4.79013h1.49128V89.83373Z" transform="translate(9.57094 13.88565)"/><path d="M124.40125,89.83373V75.12916l-4.27307,2.49251V74.14048a18.72838,18.72838,0,0,0,6.51-4.79013h1.49127V89.83373Z" transform="translate(9.57094 13.88565)"/><path d="M135.94428,76.7305a2.38236,2.38236,0,0,1,.75282-1.77542,2.65161,2.65161,0,0,1,3.65649,0,2.47816,2.47816,0,0,1,0,3.5578,2.63358,2.63358,0,0,1-3.65649,0A2.40479,2.40479,0,0,1,135.94428,76.7305Zm0,11.2791a2.38224,2.38224,0,0,1,.75282-1.77541,2.65161,2.65161,0,0,1,3.65649,0,2.47811,2.47811,0,0,1,0,3.55776,2.63358,2.63358,0,0,1-3.65649,0A2.40466,2.40466,0,0,1,135.94428,88.0096Z" transform="translate(9.57094 13.88565)"/><path d="M152.05494,89.83373V75.12916l-4.27307,2.49251V74.14048a18.72824,18.72824,0,0,0,6.51-4.79013h1.49128V89.83373Z" transform="translate(9.57094 13.88565)"/><path d="M169.262,89.83373V75.12916l-4.27308,2.49251V74.14048a18.72838,18.72838,0,0,0,6.51-4.79013h1.49127V89.83373Z" transform="translate(9.57094 13.88565)"/><image width="3039" height="6028" transform="scale(0.24)" opacity="0.4" xlink:href="homeScreenApp6.png"/><path d="M701.3176,406.2561h.7386a4.4935,4.4935,0,0,1,4.4935,4.4935V555.3893a4.4934,4.4934,0,0,1-4.4934,4.4934h-.7387a4.4933,4.4933,0,0,1-4.4933-4.4933v-144.64A4.4933,4.4933,0,0,1,701.3176,406.2561Z" fill="url(#a)"/><rect x="15.6801" y="282.2073" width="9.7254" height="50.168" rx="4.4934" fill="url(#b)"/><path d="M20.1734,373.5861h.7387a4.4934,4.4934,0,0,1,4.4934,4.4934v86.417a4.4934,4.4934,0,0,1-4.4934,4.4934h-.7386a4.4934,4.4934,0,0,1-4.4934-4.4934V378.0794A4.4933,4.4933,0,0,1,20.1734,373.5861Z" fill="url(#c)"/><path d="M20.1735,495.2949h.7387a4.4933,4.4933,0,0,1,4.4933,4.4933v86.4172a4.4933,4.4933,0,0,1-4.4933,4.4933h-.7387a4.4934,4.4934,0,0,1-4.4934-4.4934v-86.417A4.4934,4.4934,0,0,1,20.1735,495.2949Z" fill="url(#d)"/><path d="M23.66086,119.0768V1299.62935a95.703,95.703,0,0,0,95.703,95.7028h463.8919a95.703,95.703,0,0,0,95.703-95.7028V119.0768a95.68648,95.68648,0,0,0-95.6865-95.68645H119.34736A95.68648,95.68648,0,0,0,23.66086,119.0768Zm558.6228,1256.13485H120.33576a76.55448,76.55448,0,0,1-76.5545-76.5545V120.27386a76.57213,76.57213,0,0,1,76.5722-76.57211H582.266a76.57213,76.57213,0,0,1,76.5722,76.57211V1298.65715A76.55448,76.55448,0,0,1,582.28366,1375.21165Z" transform="translate(9.57094 13.88565)" fill="#020202"/><path d="M580.79446,12.01416H121.82976A109.67041,109.67041,0,0,0,12.15626,121.68251V1297.33125a109.67045,109.67045,0,0,0,109.6735,109.6685h458.9647a109.66936,109.66936,0,0,0,109.6684-109.6685V121.68251A109.66932,109.66932,0,0,0,580.79446,12.01416Zm38.9703,1377.57729a99.50156,99.50156,0,0,1-38.9703,7.8653H121.82976a100.0371,100.0371,0,0,1-100.1305-100.1255V121.68251A100.0372,100.0372,0,0,1,121.82976,21.55706h458.9647A100.0372,100.0372,0,0,1,680.92,121.68251V1297.33125a100.25269,100.25269,0,0,1-61.1552,92.2602Z" transform="translate(9.57094 13.88565)" fill="#5b7682"/><path d="M676.98716,81.04975a104.30471,104.30471,0,0,0-96.1927-63.76189H121.82976A104.30491,104.30491,0,0,0,17.43006,121.68251V1297.33125a104.30523,104.30523,0,0,0,104.3997,104.3948h458.9647a104.30522,104.30522,0,0,0,104.3947-104.3948V121.68251A103.79141,103.79141,0,0,0,676.98716,81.04975Zm-.3364,1216.2815a95.76939,95.76939,0,0,1-95.8563,95.8563H121.82976a95.76939,95.76939,0,0,1-95.8613-95.8563V121.68251a95.77535,95.77535,0,0,1,95.8613-95.85616h458.9647a95.76956,95.76956,0,0,1,95.8563,95.85616Zm.3364-1216.2815a104.30471,104.30471,0,0,0-96.1927-63.76189H121.82976A104.30491,104.30491,0,0,0,17.43006,121.68251V1297.33125a104.30523,104.30523,0,0,0,104.3997,104.3948h458.9647a104.30522,104.30522,0,0,0,104.3947-104.3948V121.68251A103.79141,103.79141,0,0,0,676.98716,81.04975Zm-.3364,1216.2815a95.76939,95.76939,0,0,1-95.8563,95.8563H121.82976a95.76939,95.76939,0,0,1-95.8613-95.8563V121.68251a95.77535,95.77535,0,0,1,95.8613-95.85616h458.9647a95.76956,95.76956,0,0,1,95.8563,95.85616ZM580.79446,12.01416H121.82976A109.67041,109.67041,0,0,0,12.15626,121.68251V1297.33125a109.67045,109.67045,0,0,0,109.6735,109.6685h458.9647a109.66936,109.66936,0,0,0,109.6684-109.6685V121.68251A109.66932,109.66932,0,0,0,580.79446,12.01416Zm105.3992,1285.31709a105.51977,105.51977,0,0,1-105.3992,105.3993H121.82976a105.52085,105.52085,0,0,1-105.4043-105.3993V121.68251A105.52082,105.52082,0,0,1,121.82976,16.28335h458.9647a105.51974,105.51974,0,0,1,105.3992,105.39916ZM621.42726,25.48976a103.70507,103.70507,0,0,0-40.6328-8.2019H121.82976A104.30491,104.30491,0,0,0,17.43006,121.68251V1297.33125a104.30523,104.30523,0,0,0,104.3997,104.3948h458.9647a104.30522,104.30522,0,0,0,104.3947-104.3948V121.68251a104.52573,104.52573,0,0,0-63.7619-96.19275Zm55.2235,1271.84149a95.76939,95.76939,0,0,1-95.8563,95.8563H121.82976a95.76939,95.76939,0,0,1-95.8613-95.8563V121.68251a95.77535,95.77535,0,0,1,95.8613-95.85616h458.9647a95.76956,95.76956,0,0,1,95.8563,95.85616Z" transform="translate(9.57094 13.88565)" fill="#353535"/><image width="2928" height="5918" transform="translate(11.28 13.2) scale(0.24)" opacity="0.4" xlink:href="homeScreenApp7.png"/><path d="M578.15656,18.55966a104.48334,104.48334,0,0,1,74.3168,30.94479,105.58505,105.58505,0,0,1,30.7829,74.70715V1294.80225a105.70016,105.70016,0,0,1-64.1914,97.351,103.96959,103.96959,0,0,1-40.9083,8.3009H124.03546a104.48376,104.48376,0,0,1-74.3169-30.9447,105.5844,105.5844,0,0,1-30.7829-74.7072V124.2116a105.70053,105.70053,0,0,1,64.1914-97.351,103.97113,103.97113,0,0,1,40.9084-8.3009h454.1211m0-4.018H124.03546c-60.2527,0-109.0969,49.10079-109.0969,109.66994V1294.80225c0,60.5692,48.8442,109.67,109.0969,109.67h454.1211c60.2526,0,109.0968-49.1008,109.0968-109.67V124.2116c0-60.56915-48.8442-109.66994-109.0968-109.66994Z" transform="translate(9.57094 13.88565)" fill="#939393"/><rect x="555.3584" y="25.8998" width="7.7727" height="13.8122" fill="#757575"/><rect x="21.7272" y="168.7565" width="13.8122" height="7.7726" fill="#757575"/><rect x="21.7272" y="1270.758" width="13.8122" height="7.7726" fill="#757575"/><rect x="159.7382" y="1407.0732" width="7.7727" height="13.8122" fill="#757575"/><rect x="686.2217" y="1270.758" width="13.8121" height="7.7726" fill="#757575"/><rect x="686.2217" y="168.7565" width="13.8121" height="7.7726" fill="#757575"/><path d="M478.57506,43.64605v22.3593a31.49928,31.49928,0,0,1-31.4993,31.4993H255.54916a31.50451,31.50451,0,0,1-31.5045-31.5045V43.64605Z" transform="translate(9.57094 13.88565)" fill="#020202"/><path d="M487.63456,43.64055a9.17907,9.17907,0,0,0-9.0595,9.179v-9.179Z" transform="translate(9.57094 13.88565)" fill="#020202"/><path d="M214.75876,43.64055a9.4495,9.4495,0,0,1,9.3265,9.4493v-9.4493Z" transform="translate(9.57094 13.88565)" fill="#020202"/><path d="M311.68536,42.34865h79.7172a4.21675,4.21675,0,0,0,4.2167-4.2168h0a4.21672,4.21672,0,0,0-4.2167-4.2167h-79.7172a4.21672,4.21672,0,0,0-4.2167,4.2167h0A4.21675,4.21675,0,0,0,311.68536,42.34865Z" transform="translate(9.57094 13.88565)" fill="#383838"/><circle cx="277.0799" cy="78.409" r="8.1688" fill="#545454"/></g></svg>