<?xml version="1.0" encoding="utf-8"?>
<!-- Generator: Adobe Illustrator 25.2.1, SVG Export Plug-In . SVG Version: 6.00 Build 0)  -->
<svg version="1.1" id="Layer_12" xmlns="http://www.w3.org/2000/svg" xmlns:xlink="http://www.w3.org/1999/xlink" x="0px" y="0px"
	 viewBox="0 0 1171.4 1142.2" style="enable-background:new 0 0 1171.4 1142.2;" xml:space="preserve">
<style type="text/css">
	.st0{fill:#F2AF36;}
	.st1{font-family:'BrushScriptMT';}
	.st2{font-size:24.0391px;}
	.st3{fill:#EAB957;}
	.st4{font-size:26.7101px;}
	.st5{fill:#F2A057;}
	.st6{font-size:26.7124px;}
	.st7{font-size:26.7122px;}
	.st8{font-size:26.712px;}
	.st9{font-size:26.7119px;}
	.st10{font-size:26.7118px;}
	.st11{font-size:26.7115px;}
	.st12{font-size:26.7113px;}
	.st13{font-size:26.7111px;}
	.st14{font-size:26.7093px;}
	.st15{font-size:26.7091px;}
	.st16{font-size:26.7092px;}
	.st17{font-size:26.7088px;}
	.st18{font-size:26.7085px;}
	.st19{font-size:26.7087px;}
	.st20{font-size:26.7082px;}
	.st21{font-size:26.7083px;}
	.st22{font-size:26.7081px;}
	.st23{font-size:26.7079px;}
	.st24{font-size:26.7077px;}
	.st25{font-size:26.7076px;}
	.st26{font-size:26.7075px;}
	.st27{font-size:26.7072px;}
	.st28{font-size:26.7073px;}
	.st29{font-size:26.7071px;}
	.st30{font-size:26.707px;}
	.st31{font-size:26.7068px;}
	.st32{font-size:26.7069px;}
	.st33{font-size:26.7067px;}
	.st34{font-size:26.7074px;}
	.st35{font-size:26.7078px;}
	.st36{font-size:26.708px;}
	.st37{font-size:26.7084px;}
	.st38{font-size:26.7086px;}
	.st39{font-size:26.709px;}
	.st40{font-size:26.711px;}
	.st41{font-size:26.7114px;}
	.st42{font-size:26.7117px;}
	.st43{font-size:26.7121px;}
	.st44{font-size:26.7123px;}
	.st45{font-size:26.7125px;}
	.st46{font-size:26.7127px;}
	.st47{font-size:26.7129px;}
	.st48{font-size:26.7131px;}
	.st49{font-size:26.713px;}
	.st50{font-size:26.7133px;}
	.st51{font-size:26.7132px;}
	.st52{font-size:26.7134px;}
	.st53{font-size:26.7135px;}
	.st54{font-size:26.7136px;}
	.st55{font-size:26.7116px;}
	.st56{font-size:26.7112px;}
	.st57{font-size:26.7126px;}
	.st58{font-size:26.7128px;}
</style>
<g>
	<g>
		<text transform="matrix(0.8656 0.5217 -0.5162 0.8565 831.6311 116.8794)" class="st0 st1 st2">F</text>
		<text transform="matrix(0.8543 0.5401 -0.5344 0.8452 842.9888 123.7451)" class="st0 st1 st2">a</text>
		<text transform="matrix(0.8464 0.5524 -0.5466 0.8374 851.279 129.0041)" class="st0 st1 st2">i</text>
		<text transform="matrix(0.8403 0.5616 -0.5556 0.8314 855.9033 132.0203)" class="st0 st1 st2">t</text>
		<text transform="matrix(0.8324 0.5733 -0.5672 0.8236 860.9088 135.3532)" class="st0 st1 st2">h</text>
		<text transform="matrix(0.8126 0.6011 -0.5947 0.8039 873.6859 144.2411)" class="st0 st1 st2">F</text>
		<text transform="matrix(0.7995 0.6183 -0.6118 0.791 884.3448 152.1447)" class="st0 st1 st2">a</text>
		<text transform="matrix(0.7905 0.6298 -0.6231 0.7822 892.0951 158.1582)" class="st0 st1 st2">i</text>
		<text transform="matrix(0.7837 0.6383 -0.6315 0.7754 896.4095 161.5926)" class="st0 st1 st2">t</text>
		<text transform="matrix(0.7747 0.6491 -0.6422 0.7665 901.0731 165.3784)" class="st0 st1 st2">h</text>
		<text transform="matrix(0.7524 0.6748 -0.6677 0.7445 912.9644 175.4355)" class="st0 st1 st2">F</text>
		<text transform="matrix(0.7379 0.6907 -0.6833 0.7301 922.8411 184.3145)" class="st0 st1 st2">a</text>
		<text transform="matrix(0.728 0.7011 -0.6937 0.7203 929.9811 191.0181)" class="st0 st1 st2">i</text>
		<text transform="matrix(0.7204 0.7089 -0.7014 0.7128 933.962 194.8509)" class="st0 st1 st2">t</text>
		<text transform="matrix(0.7106 0.7188 -0.7111 0.7031 938.2424 199.0487)" class="st0 st1 st2">h</text>
		<text transform="matrix(0.6862 0.7421 -0.7342 0.679 949.1484 210.1827)" class="st0 st1 st2">F</text>
		<text transform="matrix(0.6705 0.7563 -0.7483 0.6634 958.1473 219.9368)" class="st0 st1 st2">a</text>
		<text transform="matrix(0.6598 0.7657 -0.7575 0.6528 964.6392 227.2813)" class="st0 st1 st2">i</text>
		<text transform="matrix(0.6517 0.7726 -0.7644 0.6448 968.2312 231.4483)" class="st0 st1 st2">t</text>
		<text transform="matrix(0.6426 0.7801 -0.7719 0.6358 972.1207 236.0565)" class="st0 st1 st2">h</text>
		<text transform="matrix(0.6151 0.802 -0.7935 0.6086 981.9393 248.1223)" class="st0 st1 st2">F</text>
		<text transform="matrix(0.5983 0.8146 -0.806 0.5919 990.0063 258.6625)" class="st0 st1 st2">a</text>
		<text transform="matrix(0.5867 0.823 -0.8142 0.5805 995.7946 266.5702)" class="st0 st1 st2">i</text>
		<text transform="matrix(0.5779 0.8292 -0.8204 0.5718 999.003 271.0668)" class="st0 st1 st2">t</text>
		<text transform="matrix(0.5665 0.837 -0.8282 0.5605 1002.4589 276.0082)" class="st0 st1 st2">h</text>
		<text transform="matrix(0.5383 0.8555 -0.8464 0.5326 1011.1264 288.9413)" class="st0 st1 st2">F</text>
		<text transform="matrix(0.5201 0.8666 -0.8575 0.5145 1018.1808 300.1819)" class="st0 st1 st2">a</text>
		<text transform="matrix(0.5077 0.874 -0.8647 0.5023 1023.2068 308.5872)" class="st0 st1 st2">i</text>
		<text transform="matrix(0.4982 0.8794 -0.8701 0.4929 1025.9829 313.3633)" class="st0 st1 st2">t</text>
		<text transform="matrix(0.4859 0.8863 -0.8769 0.4808 1028.9645 318.6062)" class="st0 st1 st2">h</text>
		<text transform="matrix(0.4558 0.9021 -0.8925 0.451 1036.3823 332.2858)" class="st0 st1 st2">F</text>
		<text transform="matrix(0.4365 0.9116 -0.902 0.4318 1042.3569 344.1428)" class="st0 st1 st2">a</text>
		<text transform="matrix(0.4233 0.9178 -0.9081 0.4189 1046.5665 352.9718)" class="st0 st1 st2">i</text>
		<text transform="matrix(0.4134 0.9223 -0.9125 0.409 1048.8798 357.9814)" class="st0 st1 st2">t</text>
		<text transform="matrix(0.4004 0.928 -0.9182 0.3962 1051.3552 363.4813)" class="st0 st1 st2">h</text>
		<text transform="matrix(0.3688 0.941 -0.931 0.3649 1057.4501 377.7883)" class="st0 st1 st2">F</text>
		<text transform="matrix(0.3486 0.9487 -0.9386 0.3449 1062.2844 390.1654)" class="st0 st1 st2">a</text>
		<text transform="matrix(0.3349 0.9536 -0.9435 0.3313 1065.6465 399.3622)" class="st0 st1 st2">i</text>
		<text transform="matrix(0.3245 0.9572 -0.9471 0.321 1067.4791 404.577)" class="st0 st1 st2">t</text>
		<text transform="matrix(0.3111 0.9617 -0.9515 0.3078 1069.4241 410.2788)" class="st0 st1 st2">h</text>
		<text transform="matrix(0.2784 0.9716 -0.9613 0.2754 1074.1376 425.0859)" class="st0 st1 st2">F</text>
		<text transform="matrix(0.2575 0.9774 -0.967 0.2548 1077.7783 437.8532)" class="st0 st1 st2">a</text>
		<text transform="matrix(0.2434 0.981 -0.9706 0.2408 1080.2684 447.3575)" class="st0 st1 st2">i</text>
		<text transform="matrix(0.2327 0.9836 -0.9731 0.2303 1081.5935 452.6965)" class="st0 st1 st2">t</text>
		<text transform="matrix(0.219 0.9867 -0.9762 0.2167 1082.9875 458.5412)" class="st0 st1 st2">h</text>
		<text transform="matrix(0.1855 0.9936 -0.983 0.1835 1086.2893 473.7588)" class="st0 st1 st2">F</text>
		<text transform="matrix(0.1642 0.9973 -0.9867 0.1625 1088.7103 486.8057)" class="st0 st1 st2">a</text>
		<text transform="matrix(0.1498 0.9996 -0.9889 0.1483 1090.2909 496.4977)" class="st0 st1 st2">i</text>
		<text transform="matrix(0.139 1.0011 -0.9905 0.1375 1091.1094 501.9487)" class="st0 st1 st2">t</text>
		<text transform="matrix(0.125 1.003 -0.9923 0.1237 1091.9469 507.9016)" class="st0 st1 st2">h</text>
		<text transform="matrix(9.112909e-02 1.0066 -0.9959 9.016255e-02 1093.8004 523.3571)" class="st0 st1 st2">F</text>
		<text transform="matrix(6.961000e-02 1.0083 -0.9976 6.888000e-02 1094.9805 536.5867)" class="st0 st1 st2">a</text>
		<text transform="matrix(5.515000e-02 1.0092 -0.9985 5.457000e-02 1095.6406 546.3463)" class="st0 st1 st2">i</text>
		<text transform="matrix(4.418070e-02 1.0098 -0.999 4.371211e-02 1095.9448 551.8754)" class="st0 st1 st2">t</text>
		<text transform="matrix(3.014000e-02 1.0103 -0.9995 2.982000e-02 1096.2183 557.8729)" class="st0 st1 st2">h</text>
		<text transform="matrix(-3.947249e-03 1.0107 -1 -3.905383e-03 1096.6096 573.4359)" class="st0 st1 st2">F</text>
		<text transform="matrix(-2.550000e-02 1.0104 -0.9997 -2.523000e-02 1096.542 586.7039)" class="st0 st1 st2">a</text>
		<text transform="matrix(-4.003000e-02 1.0099 -0.9992 -3.961000e-02 1096.2792 596.5073)" class="st0 st1 st2">i</text>
		<text transform="matrix(-5.098000e-02 1.0094 -0.9987 -5.044000e-02 1096.0619 602.0214)" class="st0 st1 st2">t</text>
		<text transform="matrix(-6.507000e-02 1.0086 -0.9979 -6.438000e-02 1095.7664 608.0469)" class="st0 st1 st2">h</text>
		<text transform="matrix(-9.906000e-02 1.0058 -0.9952 -9.801000e-02 1094.696 623.5624)" class="st0 st1 st2">F</text>
		<text transform="matrix(-0.1205 1.0035 -0.9929 -0.1193 1093.3771 636.77)" class="st0 st1 st2">a</text>
		<text transform="matrix(-0.135 1.0017 -0.991 -0.1335 1092.194 646.4944)" class="st0 st1 st2">i</text>
		<text transform="matrix(-0.1458 1.0001 -0.9895 -0.1443 1091.4596 651.9552)" class="st0 st1 st2">t</text>
		<text transform="matrix(-0.1598 0.998 -0.9874 -0.1581 1090.6012 657.9199)" class="st0 st1 st2">h</text>
		<text transform="matrix(-0.1935 0.992 -0.9815 -0.1915 1088.069 673.278)" class="st0 st1 st2">F</text>
		<text transform="matrix(-0.2148 0.9876 -0.9772 -0.2125 1085.5103 686.3012)" class="st0 st1 st2">a</text>
		<text transform="matrix(-0.2291 0.9844 -0.974 -0.2266 1083.4143 695.8718)" class="st0 st1 st2">i</text>
		<text transform="matrix(-0.2398 0.9819 -0.9714 -0.2373 1082.1608 701.2658)" class="st0 st1 st2">t</text>
		<text transform="matrix(-0.2536 0.9784 -0.968 -0.2509 1080.7439 707.1017)" class="st0 st1 st2">h</text>
		<text transform="matrix(-0.2868 0.9692 -0.9589 -0.2837 1076.7699 722.1464)" class="st0 st1 st2">F</text>
		<text transform="matrix(-0.3076 0.9628 -0.9526 -0.3043 1072.9919 734.8625)" class="st0 st1 st2">a</text>
		<text transform="matrix(-0.3216 0.9582 -0.948 -0.3182 1069.9901 744.2036)" class="st0 st1 st2">i</text>
		<text transform="matrix(-0.3321 0.9546 -0.9445 -0.3286 1068.2349 749.4442)" class="st0 st1 st2">t</text>
		<text transform="matrix(-0.3456 0.9498 -0.9397 -0.3419 1066.2725 755.1127)" class="st0 st1 st2">h</text>
		<text transform="matrix(-0.378 0.9374 -0.9275 -0.3739 1060.8816 769.7166)" class="st0 st1 st2">F</text>
		<text transform="matrix(-0.3983 0.9289 -0.9191 -0.394 1055.9009 782.027)" class="st0 st1 st2">a</text>
		<text transform="matrix(-0.4118 0.923 -0.9132 -0.4075 1052.027 791.023)" class="st0 st1 st2">i</text>
		<text transform="matrix(-0.422 0.9184 -0.9087 -0.4175 1049.7861 796.0471)" class="st0 st1 st2">t</text>
		<text transform="matrix(-0.4351 0.9123 -0.9026 -0.4304 1047.2759 801.5341)" class="st0 st1 st2">h</text>
		<text transform="matrix(-0.4663 0.8967 -0.8872 -0.4613 1040.5121 815.547)" class="st0 st1 st2">F</text>
		<text transform="matrix(-0.4858 0.8863 -0.8769 -0.4806 1034.3728 827.3165)" class="st0 st1 st2">a</text>
		<text transform="matrix(-0.4988 0.8791 -0.8697 -0.4935 1029.6545 835.8965)" class="st0 st1 st2">i</text>
		<text transform="matrix(-0.5086 0.8735 -0.8642 -0.5032 1026.9336 840.6943)" class="st0 st1 st2">t</text>
		<text transform="matrix(-0.521 0.8661 -0.8569 -0.5155 1023.9059 845.9172)" class="st0 st1 st2">h</text>
		<text transform="matrix(-0.5507 0.8475 -0.8385 -0.5449 1015.8368 859.1804)" class="st0 st1 st2">F</text>
		<text transform="matrix(-0.5692 0.8352 -0.8264 -0.5632 1008.592 870.3018)" class="st0 st1 st2">a</text>
		<text transform="matrix(-0.5815 0.8267 -0.8179 -0.5753 1003.0541 878.402)" class="st0 st1 st2">i</text>
		<text transform="matrix(-0.5907 0.8201 -0.8114 -0.5844 999.8796 882.9193)" class="st0 st1 st2">t</text>
		<text transform="matrix(-0.6024 0.8116 -0.803 -0.596 996.3753 887.8021)" class="st0 st1 st2">h</text>
		<text transform="matrix(-0.6302 0.7902 -0.7818 -0.6235 987.0375 900.258)" class="st0 st1 st2">F</text>
		<text transform="matrix(-0.6474 0.7761 -0.7679 -0.6406 978.7425 910.629)" class="st0 st1 st2">a</text>
		<text transform="matrix(-0.6588 0.7665 -0.7584 -0.6518 972.4661 918.1303)" class="st0 st1 st2">i</text>
		<text transform="matrix(-0.6673 0.7591 -0.7511 -0.6602 968.8687 922.3176)" class="st0 st1 st2">t</text>
		<text transform="matrix(-0.6781 0.7495 -0.7415 -0.6709 964.8953 926.855)" class="st0 st1 st2">h</text>
		<text transform="matrix(-0.7036 0.7256 -0.7179 -0.6961 954.4132 938.3293)" class="st0 st1 st2">F</text>
		<text transform="matrix(-0.7192 0.7101 -0.7026 -0.7116 945.1615 947.8478)" class="st0 st1 st2">a</text>
		<text transform="matrix(-0.7296 0.6995 -0.6921 -0.7218 938.1759 954.722)" class="st0 st1 st2">i</text>
		<text transform="matrix(-0.7372 0.6914 -0.6841 -0.7294 934.2001 958.5369)" class="st0 st1 st2">t</text>
		<text transform="matrix(-0.7469 0.6809 -0.6737 -0.739 929.809 962.6679)" class="st0 st1 st2">h</text>
		<text transform="matrix(-0.7697 0.655 -0.6481 -0.7616 918.2674 973.0898)" class="st0 st1 st2">F</text>
		<text transform="matrix(-0.7799 0.6429 -0.6361 -0.7716 908.1042 981.6786)" class="st0 st1 st2">a</text>
		<text transform="matrix(-0.8005 0.617 -0.6104 -0.7921 900.585 987.8692)" class="st0 st1 st2">i</text>
		<text transform="matrix(-0.8005 0.617 -0.6104 -0.7921 896.2135 991.2902)" class="st0 st1 st2">t</text>
		<text transform="matrix(-0.8081 0.607 -0.6006 -0.7996 891.4466 994.9827)" class="st0 st1 st2">h</text>
		<text transform="matrix(-0.8284 0.5791 -0.5729 -0.8196 878.96 1004.2715)" class="st0 st1 st2">F</text>
		<text transform="matrix(-0.8407 0.561 -0.5551 -0.8318 868.0822 1011.8547)" class="st0 st1 st2">a</text>
		<text transform="matrix(-0.8489 0.5486 -0.5428 -0.8399 859.9139 1017.2872)" class="st0 st1 st2">i</text>
		<text transform="matrix(-0.8549 0.5392 -0.5335 -0.8458 855.2805 1020.2812)" class="st0 st1 st2">t</text>
		<text transform="matrix(-0.8625 0.527 -0.5214 -0.8533 850.1953 1023.5022)" class="st0 st1 st2">h</text>
		<text transform="matrix(-0.8802 0.4969 -0.4916 -0.8708 836.886 1031.5476)" class="st0 st1 st2">F</text>
		<text transform="matrix(-0.8908 0.4775 -0.4724 -0.8814 825.3168 1038.0592)" class="st0 st1 st2">a</text>
		<text transform="matrix(-0.8978 0.4643 -0.4593 -0.8883 816.6826 1042.6702)" class="st0 st1 st2">i</text>
		<text transform="matrix(-0.9029 0.4542 -0.4494 -0.8933 811.7723 1045.2101)" class="st0 st1 st2">t</text>
		<text transform="matrix(-0.9093 0.4412 -0.4366 -0.8997 806.4091 1047.9222)" class="st0 st1 st2">h</text>
		<text transform="matrix(-0.9241 0.4094 -0.405 -0.9143 792.3645 1054.6536)" class="st0 st1 st2">F</text>
		<text transform="matrix(-0.9329 0.389 -0.3849 -0.923 780.2407 1060.0056)" class="st0 st1 st2">a</text>
		<text transform="matrix(-0.9385 0.3751 -0.3711 -0.9286 771.1719 1063.7722)" class="st0 st1 st2">i</text>
		<text transform="matrix(-0.9426 0.3646 -0.3608 -0.9327 766.057 1065.8171)" class="st0 st1 st2">t</text>
		<text transform="matrix(-0.9478 0.3511 -0.3474 -0.9377 760.4437 1067.9995)" class="st0 st1 st2">h</text>
		<text transform="matrix(-0.9594 0.318 -0.3146 -0.9492 745.8316 1073.3339)" class="st0 st1 st2">F</text>
		<text transform="matrix(-0.9661 0.2969 -0.2937 -0.9559 733.2349 1077.4928)" class="st0 st1 st2">a</text>
		<text transform="matrix(-0.9704 0.2826 -0.2796 -0.9601 723.8664 1080.3555)" class="st0 st1 st2">i</text>
		<text transform="matrix(-0.9735 0.2718 -0.2689 -0.9632 718.5774 1081.8966)" class="st0 st1 st2">t</text>
		<text transform="matrix(-0.9773 0.2579 -0.2551 -0.9669 712.77 1083.53)" class="st0 st1 st2">h</text>
		<text transform="matrix(-0.9856 0.224 -0.2216 -0.9751 697.7013 1087.429)" class="st0 st1 st2">F</text>
		<text transform="matrix(-0.9902 0.2024 -0.2003 -0.9797 684.7689 1090.3506)" class="st0 st1 st2">a</text>
		<text transform="matrix(-0.9931 0.1879 -0.1859 -0.9826 675.1685 1092.2991)" class="st0 st1 st2">i</text>
		<text transform="matrix(-0.9951 0.1769 -0.175 -0.9846 669.7445 1093.3273)" class="st0 st1 st2">t</text>
		<text transform="matrix(-0.9975 0.1628 -0.161 -0.9869 663.8235 1094.3887)" class="st0 st1 st2">h</text>
		<text transform="matrix(-1.0025 0.1284 -0.1271 -0.9919 648.447 1096.8242)" class="st0 st1 st2">F</text>
		<text transform="matrix(-1.0051 0.1067 -0.1055 -0.9944 635.2716 1098.494)" class="st0 st1 st2">a</text>
		<text transform="matrix(-1.0065 9.205000e-02 -9.107000e-02 -0.9958 625.5358 1099.5115)" class="st0 st1 st2">i</text>
		<text transform="matrix(-1.0075 8.098070e-02 -8.012179e-02 -0.9968 620.035 1100.0156)" class="st0 st1 st2">t</text>
		<text transform="matrix(-1.0085 6.678000e-02 -6.607000e-02 -0.9978 614.044 1100.5107)" class="st0 st1 st2">h</text>
		<text transform="matrix(-1.0102 3.238000e-02 -3.204000e-02 -0.9995 598.5089 1101.4635)" class="st0 st1 st2">F</text>
		<text transform="matrix(-1.0107 1.062506e-02 -1.051237e-02 -0.9999 585.2392 1101.8751)" class="st0 st1 st2">a</text>
		<text transform="matrix(-1.0107 -4.000000e-03 3.960000e-03 -1 575.4423 1101.9603)" class="st0 st1 st2">i</text>
		<text transform="matrix(-1.0106 -1.506925e-02 1.490942e-02 -0.9999 569.9039 1101.9423)" class="st0 st1 st2">t</text>
		<text transform="matrix(-1.0103 -2.919157e-02 2.888196e-02 -0.9996 563.9036 1101.8621)" class="st0 st1 st2">h</text>
		<text transform="matrix(-1.0087 -6.341592e-02 6.274331e-02 -0.998 548.3474 1101.3418)" class="st0 st1 st2">F</text>
		<text transform="matrix(-1.0071 -8.498772e-02 8.408631e-02 -0.9965 535.1038 1100.4902)" class="st0 st1 st2">a</text>
		<text transform="matrix(-1.0058 -9.953000e-02 9.847000e-02 -0.9951 525.3185 1099.6508)" class="st0 st1 st2">i</text>
		<text transform="matrix(-1.0047 -0.1104 0.1092 -0.994 519.8587 1099.1112)" class="st0 st1 st2">t</text>
		<text transform="matrix(-1.003 -0.1244 0.1231 -0.9924 513.8672 1098.4613)" class="st0 st1 st2">h</text>
		<text transform="matrix(-0.9983 -0.1582 0.1566 -0.9877 498.4184 1096.4734)" class="st0 st1 st2">F</text>
		<text transform="matrix(-0.9947 -0.1795 0.1776 -0.9841 485.3279 1094.3821)" class="st0 st1 st2">a</text>
		<text transform="matrix(-0.992 -0.1938 0.1917 -0.9815 475.6788 1092.6254)" class="st0 st1 st2">i</text>
		<text transform="matrix(-0.9898 -0.2045 0.2023 -0.9793 470.2614 1091.5696)" class="st0 st1 st2">t</text>
		<text transform="matrix(-0.9869 -0.2183 0.216 -0.9764 464.3434 1090.3578)" class="st0 st1 st2">h</text>
		<text transform="matrix(-0.9789 -0.2514 0.2488 -0.9686 449.1843 1086.9302)" class="st0 st1 st2">F</text>
		<text transform="matrix(-0.9734 -0.2722 0.2693 -0.963 436.3408 1083.615)" class="st0 st1 st2">a</text>
		<text transform="matrix(-0.9694 -0.2862 0.2832 -0.9591 426.9041 1080.9596)" class="st0 st1 st2">i</text>
		<text transform="matrix(-0.9662 -0.2967 0.2935 -0.9559 421.6127 1079.3993)" class="st0 st1 st2">t</text>
		<text transform="matrix(-0.962 -0.3102 0.3069 -0.9518 415.8362 1077.6362)" class="st0 st1 st2">h</text>
		<text transform="matrix(-0.9509 -0.3424 0.3388 -0.9409 401.0446 1072.7902)" class="st0 st1 st2">F</text>
		<text transform="matrix(-0.9434 -0.3626 0.3588 -0.9334 388.5704 1068.2817)" class="st0 st1 st2">a</text>
		<text transform="matrix(-0.9381 -0.3762 0.3722 -0.9281 379.4138 1064.7457)" class="st0 st1 st2">i</text>
		<text transform="matrix(-0.934 -0.3863 0.3822 -0.9241 374.3145 1062.7026)" class="st0 st1 st2">t</text>
		<text transform="matrix(-0.9285 -0.3993 0.3951 -0.9186 368.7366 1060.4077)" class="st0 st1 st2">h</text>
		<text transform="matrix(-0.9145 -0.4305 0.4259 -0.9048 354.4626 1054.1882)" class="st0 st1 st2">F</text>
		<text transform="matrix(-0.9051 -0.4499 0.4452 -0.8955 342.4725 1048.5262)" class="st0 st1 st2">a</text>
		<text transform="matrix(-0.8985 -0.4629 0.458 -0.889 333.7091 1044.1536)" class="st0 st1 st2">i</text>
		<text transform="matrix(-0.8934 -0.4727 0.4677 -0.8839 328.7863 1041.6174)" class="st0 st1 st2">t</text>
		<text transform="matrix(-0.8867 -0.4851 0.48 -0.8773 323.4682 1038.8164)" class="st0 st1 st2">h</text>
		<text transform="matrix(-0.8698 -0.5148 0.5094 -0.8606 309.8534 1031.2842)" class="st0 st1 st2">F</text>
		<text transform="matrix(-0.8586 -0.5333 0.5277 -0.8494 298.4276 1024.5037)" class="st0 st1 st2">a</text>
		<text transform="matrix(-0.8508 -0.5456 0.5399 -0.8418 290.1237 1019.3268)" class="st0 st1 st2">i</text>
		<text transform="matrix(-0.8448 -0.5549 0.549 -0.8358 285.4806 1016.3519)" class="st0 st1 st2">t</text>
		<text transform="matrix(-0.837 -0.5666 0.5606 -0.8281 280.4311 1013.0477)" class="st0 st1 st2">h</text>
		<text transform="matrix(-0.8173 -0.5946 0.5883 -0.8086 267.5801 1004.2592)" class="st0 st1 st2">F</text>
		<text transform="matrix(-0.8044 -0.6119 0.6054 -0.7959 256.8672 996.4462)" class="st0 st1 st2">a</text>
		<text transform="matrix(-0.7955 -0.6234 0.6168 -0.7871 249.075 990.4996)" class="st0 st1 st2">i</text>
		<text transform="matrix(-0.7887 -0.6321 0.6253 -0.7803 244.7181 987.0868)" class="st0 st1 st2">t</text>
		<text transform="matrix(-0.7798 -0.643 0.6362 -0.7716 240.0118 983.3273)" class="st0 st1 st2">h</text>
		<text transform="matrix(-0.7577 -0.6689 0.6618 -0.7497 228.0592 973.3794)" class="st0 st1 st2">F</text>
		<text transform="matrix(-0.7434 -0.6848 0.6775 -0.7355 218.1248 964.5887)" class="st0 st1 st2">a</text>
		<text transform="matrix(-0.7335 -0.6954 0.688 -0.7257 210.9204 957.9326)" class="st0 st1 st2">i</text>
		<text transform="matrix(-0.726 -0.7032 0.6957 -0.7183 206.9143 954.1371)" class="st0 st1 st2">t</text>
		<text transform="matrix(-0.7162 -0.7132 0.7056 -0.7086 202.5902 949.9633)" class="st0 st1 st2">h</text>
		<text transform="matrix(-0.692 -0.7366 0.7288 -0.6847 191.6155 938.9333)" class="st0 st1 st2">F</text>
		<text transform="matrix(-0.6764 -0.751 0.743 -0.6692 182.5361 929.2463)" class="st0 st1 st2">a</text>
		<text transform="matrix(-0.6657 -0.7605 0.7524 -0.6587 175.9769 921.9406)" class="st0 st1 st2">i</text>
		<text transform="matrix(-0.6576 -0.7675 0.7594 -0.6506 172.3399 917.7899)" class="st0 st1 st2">t</text>
		<text transform="matrix(-0.6471 -0.7764 0.7682 -0.6403 168.4173 913.226)" class="st0 st1 st2">h</text>
		<text transform="matrix(-0.6173 -0.8003 0.7918 -0.6107 158.4879 901.2569)" class="st0 st1 st2">F</text>
		<text transform="matrix(-0.6046 -0.81 0.8014 -0.5981 150.3551 890.7401)" class="st0 st1 st2">a</text>
		<text transform="matrix(-0.5931 -0.8184 0.8097 -0.5868 144.5131 882.8895)" class="st0 st1 st2">i</text>
		<text transform="matrix(-0.5844 -0.8247 0.8159 -0.5782 141.2668 878.4105)" class="st0 st1 st2">t</text>
		<text transform="matrix(-0.573 -0.8326 0.8238 -0.567 137.7809 873.5093)" class="st0 st1 st2">h</text>
		<text transform="matrix(-0.545 -0.8512 0.8422 -0.5392 129.0103 860.6414)" class="st0 st1 st2">F</text>
		<text transform="matrix(-0.5269 -0.8625 0.8534 -0.5213 121.873 849.4647)" class="st0 st1 st2">a</text>
		<text transform="matrix(-0.5145 -0.87 0.8607 -0.5091 116.7753 841.0909)" class="st0 st1 st2">i</text>
		<text transform="matrix(-0.5051 -0.8754 0.8662 -0.4998 113.9709 836.353)" class="st0 st1 st2">t</text>
		<text transform="matrix(-0.4929 -0.8824 0.873 -0.4877 110.9426 831.1241)" class="st0 st1 st2">h</text>
		<text transform="matrix(-0.463 -0.8985 0.8889 -0.4581 103.4182 817.5068)" class="st0 st1 st2">F</text>
		<text transform="matrix(-0.4437 -0.9081 0.8985 -0.439 97.3569 805.7102)" class="st0 st1 st2">a</text>
		<text transform="matrix(-0.4306 -0.9144 0.9047 -0.426 93.0601 796.8828)" class="st0 st1 st2">i</text>
		<text transform="matrix(-0.4206 -0.919 0.9093 -0.4162 90.7048 791.8853)" class="st0 st1 st2">t</text>
		<text transform="matrix(-0.4078 -0.9248 0.915 -0.4035 88.1929 786.4211)" class="st0 st1 st2">h</text>
		<text transform="matrix(-0.3763 -0.9381 0.9281 -0.3723 81.9785 772.1479)" class="st0 st1 st2">F</text>
		<text transform="matrix(-0.3561 -0.9459 0.9359 -0.3523 77.0531 759.8247)" class="st0 st1 st2">a</text>
		<text transform="matrix(-0.3425 -0.9509 0.9408 -0.3389 73.6221 750.6694)" class="st0 st1 st2">i</text>
		<text transform="matrix(-0.3321 -0.9546 0.9445 -0.3286 71.7455 745.4628)" class="st0 st1 st2">t</text>
		<text transform="matrix(-0.3188 -0.9591 0.949 -0.3154 69.7623 739.7957)" class="st0 st1 st2">h</text>
		<text transform="matrix(-0.2861 -0.9694 0.9591 -0.2831 64.9186 724.9895)" class="st0 st1 st2">F</text>
		<text transform="matrix(-0.2653 -0.9753 0.9649 -0.2625 61.1804 712.2679)" class="st0 st1 st2">a</text>
		<text transform="matrix(-0.2512 -0.979 0.9686 -0.2486 58.622 702.8042)" class="st0 st1 st2">i</text>
		<text transform="matrix(-0.2405 -0.9817 0.9713 -0.238 57.2451 697.446)" class="st0 st1 st2">t</text>
		<text transform="matrix(-0.2268 -0.9849 0.9745 -0.2244 55.8052 691.6102)" class="st0 st1 st2">h</text>
		<text transform="matrix(-0.1934 -0.992 0.9815 -0.1914 52.3838 676.4315)" class="st0 st1 st2">F</text>
		<text transform="matrix(-0.1722 -0.9959 0.9854 -0.1703 49.8584 663.3979)" class="st0 st1 st2">a</text>
		<text transform="matrix(-0.1578 -0.9983 0.9877 -0.1561 48.2055 653.7429)" class="st0 st1 st2">i</text>
		<text transform="matrix(-0.1469 -1 0.9894 -0.1454 47.3387 648.2686)" class="st0 st1 st2">t</text>
		<text transform="matrix(-0.133 -1.0019 0.9913 -0.1316 46.4576 642.344)" class="st0 st1 st2">h</text>
		<text transform="matrix(-9.913000e-02 -1.0058 0.9952 -9.808000e-02 44.4803 626.8964)" class="st0 st1 st2">F</text>
		<text transform="matrix(-7.762000e-02 -1.0077 0.997 -7.679000e-02 43.1924 613.6722)" class="st0 st1 st2">a</text>
		<text transform="matrix(-6.316000e-02 -1.0087 0.998 -6.249000e-02 42.4559 603.9153)" class="st0 st1 st2">i</text>
		<text transform="matrix(-5.219000e-02 -1.0094 0.9987 -5.163000e-02 42.1074 598.3867)" class="st0 st1 st2">t</text>
		<text transform="matrix(-3.815000e-02 -1.01 0.9993 -3.775000e-02 41.788 592.3909)" class="st0 st1 st2">h</text>
		<text transform="matrix(-4.060000e-03 -1.0107 1 -4.010000e-03 41.2723 576.8268)" class="st0 st1 st2">F</text>
		<text transform="matrix(1.750062e-02 -1.0106 0.9999 1.731501e-02 41.2352 563.5544)" class="st0 st1 st2">a</text>
		<text transform="matrix(3.199021e-02 -1.0102 0.9995 3.165091e-02 41.4191 553.7726)" class="st0 st1 st2">i</text>
		<text transform="matrix(4.294000e-02 -1.0098 0.9991 4.249000e-02 41.5926 548.2552)" class="st0 st1 st2">t</text>
		<text transform="matrix(5.699001e-02 -1.0091 0.9984 5.639000e-02 41.8378 542.252)" class="st0 st1 st2">h</text>
		<text transform="matrix(9.105001e-02 -1.0066 0.9959 9.009000e-02 42.7888 526.7004)" class="st0 st1 st2">F</text>
		<text transform="matrix(0.1125 -1.0044 0.9938 0.1113 44 513.4825)" class="st0 st1 st2">a</text>
		<text transform="matrix(0.127 -1.0027 0.9921 0.1256 45.1066 503.7488)" class="st0 st1 st2">i</text>
		<text transform="matrix(0.1379 -1.0013 0.9906 0.1365 45.8007 498.2558)" class="st0 st1 st2">t</text>
		<text transform="matrix(0.1519 -0.9992 0.9886 0.1502 46.6095 492.3111)" class="st0 st1 st2">h</text>
		<text transform="matrix(0.1856 -0.9935 0.983 0.1836 49.0194 476.9326)" class="st0 st1 st2">F</text>
		<text transform="matrix(0.2069 -0.9893 0.9788 0.2047 51.4717 463.8893)" class="st0 st1 st2">a</text>
		<text transform="matrix(0.2212 -0.9862 0.9758 0.2188 53.4924 454.3057)" class="st0 st1 st2">i</text>
		<text transform="matrix(0.2319 -0.9837 0.9733 0.2295 54.6974 448.9246)" class="st0 st1 st2">t</text>
		<text transform="matrix(0.2457 -0.9804 0.97 0.2431 56.0708 443.0558)" class="st0 st1 st2">h</text>
		<text transform="matrix(0.2789 -0.9715 0.9612 0.276 59.9229 427.9802)" class="st0 st1 st2">F</text>
		<text transform="matrix(0.2999 -0.9652 0.955 0.2967 63.6061 415.2129)" class="st0 st1 st2">a</text>
		<text transform="matrix(0.3139 -0.9607 0.9506 0.3105 66.5248 405.8728)" class="st0 st1 st2">i</text>
		<text transform="matrix(0.3244 -0.9572 0.9471 0.321 68.2383 400.6213)" class="st0 st1 st2">t</text>
		<text transform="matrix(0.3379 -0.9526 0.9425 0.3343 70.1612 394.9144)" class="st0 st1 st2">h</text>
		<text transform="matrix(0.3704 -0.9404 0.9304 0.3664 75.4325 380.2761)" class="st0 st1 st2">F</text>
		<text transform="matrix(0.3907 -0.9321 0.9223 0.3866 80.3124 367.9278)" class="st0 st1 st2">a</text>
		<text transform="matrix(0.4043 -0.9263 0.9165 0.4 84.111 358.9037)" class="st0 st1 st2">i</text>
		<text transform="matrix(0.4146 -0.9218 0.912 0.4102 86.3189 353.84)" class="st0 st1 st2">t</text>
		<text transform="matrix(0.4276 -0.9158 0.9061 0.4231 88.7733 348.3598)" class="st0 st1 st2">h</text>
		<text transform="matrix(0.459 -0.9005 0.891 0.4541 95.4299 334.2789)" class="st0 st1 st2">F</text>
		<text transform="matrix(0.4785 -0.8903 0.8808 0.4735 101.4689 322.4645)" class="st0 st1 st2">a</text>
		<text transform="matrix(0.4916 -0.8831 0.8737 0.4864 106.1172 313.853)" class="st0 st1 st2">i</text>
		<text transform="matrix(0.5014 -0.8776 0.8683 0.4961 108.8095 309.0131)" class="st0 st1 st2">t</text>
		<text transform="matrix(0.5139 -0.8703 0.8611 0.5085 111.7795 303.7935)" class="st0 st1 st2">h</text>
		<text transform="matrix(0.5438 -0.852 0.8429 0.538 119.7554 290.4318)" class="st0 st1 st2">F</text>
		<text transform="matrix(0.5624 -0.8398 0.8309 0.5564 126.9054 279.2608)" class="st0 st1 st2">a</text>
		<text transform="matrix(0.5747 -0.8314 0.8226 0.5686 132.3739 271.1206)" class="st0 st1 st2">i</text>
		<text transform="matrix(0.584 -0.8249 0.8162 0.5778 135.5092 266.5825)" class="st0 st1 st2">t</text>
		<text transform="matrix(0.5957 -0.8165 0.8078 0.5894 138.9683 261.6776)" class="st0 st1 st2">h</text>
		<text transform="matrix(0.6237 -0.7953 0.7869 0.6171 148.2094 249.1395)" class="st0 st1 st2">F</text>
		<text transform="matrix(0.641 -0.7814 0.7731 0.6342 156.4081 238.7113)" class="st0 st1 st2">a</text>
		<text transform="matrix(0.6525 -0.7719 0.7637 0.6456 162.6345 231.1457)" class="st0 st1 st2">i</text>
		<text transform="matrix(0.6611 -0.7645 0.7564 0.6541 166.1918 226.9345)" class="st0 st1 st2">t</text>
		<text transform="matrix(0.6719 -0.755 0.747 0.6648 170.1242 222.3728)" class="st0 st1 st2">h</text>
		<text transform="matrix(0.6977 -0.7313 0.7236 0.6903 180.5293 210.7913)" class="st0 st1 st2">F</text>
		<text transform="matrix(0.7134 -0.7159 0.7083 0.7059 189.6925 201.2113)" class="st0 st1 st2">a</text>
		<text transform="matrix(0.7238 -0.7054 0.6979 0.7162 196.6136 194.2888)" class="st0 st1 st2">i</text>
		<text transform="matrix(0.7316 -0.6974 0.69 0.7239 200.571 190.4282)" class="st0 st1 st2">t</text>
		<text transform="matrix(0.7414 -0.6869 0.6796 0.7336 204.919 186.2695)" class="st0 st1 st2">h</text>
		<text transform="matrix(0.7645 -0.6612 0.6541 0.7564 216.393 175.7383)" class="st0 st1 st2">F</text>
		<text transform="matrix(0.7785 -0.6446 0.6377 0.7703 226.4326 167.0773)" class="st0 st1 st2">a</text>
		<text transform="matrix(0.7799 -0.6429 0.6361 0.7716 234.0595 160.8288)" class="st0 st1 st2">i</text>
		<text transform="matrix(0.8006 -0.617 0.6104 0.7921 238.2477 157.3768)" class="st0 st1 st2">t</text>
		<text transform="matrix(0.8033 -0.6134 0.6069 0.7947 243.0316 153.6418)" class="st0 st1 st2">h</text>
		<text transform="matrix(0.8237 -0.5857 0.5795 0.8149 255.4259 144.2666)" class="st0 st1 st2">F</text>
		<text transform="matrix(0.8362 -0.5678 0.5618 0.8273 266.2568 136.5846)" class="st0 st1 st2">a</text>
		<text transform="matrix(0.8444 -0.5555 0.5496 0.8354 274.3695 131.0946)" class="st0 st1 st2">i</text>
		<text transform="matrix(0.8505 -0.5461 0.5403 0.8415 278.9837 128.0557)" class="st0 st1 st2">t</text>
		<text transform="matrix(0.8582 -0.5339 0.5283 0.8491 284.053 124.7883)" class="st0 st1 st2">h</text>
		<text transform="matrix(0.8761 -0.504 0.4987 0.8668 297.2953 116.6379)" class="st0 st1 st2">F</text>
		<text transform="matrix(0.8869 -0.4847 0.4796 0.8775 308.8012 110.0371)" class="st0 st1 st2">a</text>
		<text transform="matrix(0.894 -0.4716 0.4666 0.8845 317.4067 105.3519)" class="st0 st1 st2">i</text>
		<text transform="matrix(0.8992 -0.4616 0.4567 0.8896 322.279 102.7788)" class="st0 st1 st2">t</text>
		<text transform="matrix(0.9057 -0.4487 0.4439 0.8961 327.6271 100.0209)" class="st0 st1 st2">h</text>
		<text transform="matrix(0.9207 -0.4169 0.4125 0.9109 341.6118 93.1773)" class="st0 st1 st2">F</text>
		<text transform="matrix(0.9296 -0.3966 0.3924 0.9198 353.7002 87.7193)" class="st0 st1 st2">a</text>
		<text transform="matrix(0.9354 -0.3828 0.3788 0.9255 362.7207 83.8884)" class="st0 st1 st2">i</text>
		<text transform="matrix(0.9396 -0.3724 0.3684 0.9297 367.8237 81.7969)" class="st0 st1 st2">t</text>
		<text transform="matrix(0.9449 -0.3588 0.355 0.9349 373.426 79.5667)" class="st0 st1 st2">h</text>
		<text transform="matrix(0.9567 -0.3259 0.3224 0.9466 387.9829 74.1168)" class="st0 st1 st2">F</text>
		<text transform="matrix(0.9637 -0.3048 0.3016 0.9535 400.5535 69.8542)" class="st0 st1 st2">a</text>
		<text transform="matrix(0.9681 -0.2905 0.2875 0.9578 409.9041 66.9122)" class="st0 st1 st2">i</text>
		<text transform="matrix(0.9712 -0.2797 0.2767 0.9609 415.2055 65.3194)" class="st0 st1 st2">t</text>
		<text transform="matrix(0.9751 -0.2658 0.263 0.9648 420.9825 63.6453)" class="st0 st1 st2">h</text>
		<text transform="matrix(0.9837 -0.232 0.2295 0.9733 436.0037 59.6276)" class="st0 st1 st2">F</text>
		<text transform="matrix(0.9886 -0.2105 0.2083 0.9781 448.9176 56.6)" class="st0 st1 st2">a</text>
		<text transform="matrix(0.9915 -0.1959 0.1939 0.981 458.5055 54.5741)" class="st0 st1 st2">i</text>
		<text transform="matrix(0.9937 -0.185 0.183 0.9831 463.9246 53.5016)" class="st0 st1 st2">t</text>
		<text transform="matrix(0.9962 -0.1708 0.169 0.9856 469.838 52.3897)" class="st0 st1 st2">h</text>
		<text transform="matrix(1.0014 -0.1366 0.1351 0.9908 485.1762 49.8334)" class="st0 st1 st2">F</text>
		<text transform="matrix(1.0042 -0.1148 0.1136 0.9935 498.3405 48.0549)" class="st0 st1 st2">a</text>
		<text transform="matrix(1.0057 -0.1002 9.911000e-02 0.9951 508.0703 46.9575)" class="st0 st1 st2">i</text>
		<text transform="matrix(1.0068 -8.910000e-02 8.816000e-02 0.9961 513.5683 46.409)" class="st0 st1 st2">t</text>
		<text transform="matrix(1.0079 -7.490000e-02 7.411000e-02 0.9973 519.5583 45.868)" class="st0 st1 st2">h</text>
		<text transform="matrix(1.0099 -4.049000e-02 4.006000e-02 0.9992 535.0857 44.7871)" class="st0 st1 st2">F</text>
		<text transform="matrix(1.0105 -1.872632e-02 1.852770e-02 0.9998 548.3547 44.2716)" class="st0 st1 st2">a</text>
		<text transform="matrix(1.0107 -4.089999e-03 4.050000e-03 1 558.1523 44.106)" class="st0 st1 st2">i</text>
		<text transform="matrix(1.0107 6.931385e-03 -6.857868e-03 1 563.6645 44.0816)" class="st0 st1 st2">t</text>
		<text transform="matrix(1.0105 2.111401e-02 -2.089007e-02 0.9998 569.6912 44.1124)" class="st0 st1 st2">h</text>
		<text transform="matrix(1.0092 5.536000e-02 -5.478000e-02 0.9985 585.2527 44.5107)" class="st0 st1 st2">F</text>
		<text transform="matrix(1.0078 7.695733e-02 -7.614110e-02 0.9971 598.502 45.2539)" class="st0 st1 st2">a</text>
		<text transform="matrix(1.0066 9.146000e-02 -9.049000e-02 0.9959 608.2664 46.0142)" class="st0 st1 st2">i</text>
		<text transform="matrix(1.0055 0.1024 -0.1014 0.9948 613.7814 46.5141)" class="st0 st1 st2">t</text>
		<text transform="matrix(1.004 0.1164 -0.1152 0.9933 619.7534 47.1124)" class="st0 st1 st2">h</text>
		<text transform="matrix(0.9995 0.1502 -0.1486 0.9889 635.1904 48.9749)" class="st0 st1 st2">F</text>
		<text transform="matrix(0.9961 0.1716 -0.1697 0.9855 648.3204 50.9644)" class="st0 st1 st2">a</text>
		<text transform="matrix(0.9935 0.1859 -0.1839 0.9829 657.9805 52.644)" class="st0 st1 st2">i</text>
		<text transform="matrix(0.9914 0.1966 -0.1945 0.9809 663.4064 53.6572)" class="st0 st1 st2">t</text>
		<text transform="matrix(0.9886 0.2104 -0.2082 0.9781 669.3073 54.8171)" class="st0 st1 st2">h</text>
		<text transform="matrix(0.9809 0.2436 -0.241 0.9705 684.5139 58.1275)" class="st0 st1 st2">F</text>
		<text transform="matrix(0.9755 0.2645 -0.2617 0.9651 697.4031 61.3453)" class="st0 st1 st2">a</text>
		<text transform="matrix(0.9716 0.2785 -0.2755 0.9613 706.8584 63.9241)" class="st0 st1 st2">i</text>
		<text transform="matrix(0.9685 0.289 -0.2859 0.9582 712.1592 65.4421)" class="st0 st1 st2">t</text>
		<text transform="matrix(0.9644 0.3025 -0.2992 0.9542 717.9261 67.1527)" class="st0 st1 st2">h</text>
	</g>
	<g>
		<text transform="matrix(0.9488 -0.3484 0.3447 0.9387 409.8253 79.412)" class="st3 st1 st4">H</text>
		<text transform="matrix(0.9569 -0.3255 0.322 0.9467 426.1115 73.4884)" class="st3 st1 st4">o</text>
		<text transform="matrix(0.9626 -0.3081 0.3048 0.9524 434.0567 70.7723)" class="st3 st1 st4">p</text>
		<text transform="matrix(0.9679 -0.2912 0.2881 0.9576 444.4155 67.4705)" class="st3 st1 st4">e</text>
		<text transform="matrix(0.9781 -0.2546 0.2519 0.9678 459.0757 63.1117)" class="st3 st1 st4">H</text>
		<text transform="matrix(0.984 -0.231 0.2285 0.9735 475.8616 58.7984)" class="st3 st1 st4">o</text>
		<text transform="matrix(0.988 -0.2133 0.211 0.9775 484.0021 56.874)" class="st3 st1 st4">p</text>
		<text transform="matrix(0.9915 -0.1959 0.1939 0.981 494.6528 54.5882)" class="st3 st1 st4">e</text>
		<text transform="matrix(0.9982 -0.1587 0.157 0.9876 509.6659 51.6721)" class="st3 st1 st4">H</text>
		<text transform="matrix(1.0017 -0.1348 0.1334 0.9911 526.8022 49.0006)" class="st3 st1 st4">o</text>
		<text transform="matrix(1.0039 -0.1169 0.1157 0.9933 535.0869 47.8735)" class="st3 st1 st4">p</text>
		<text transform="matrix(1.0058 -9.957401e-02 9.851789e-02 0.9951 545.8802 46.6289)" class="st3 st1 st4">e</text>
		<text transform="matrix(1.0078 7.666253e-02 -7.584943e-02 0.9971 636.2762 44.5042)" class="st3 st1 st4">H</text>
		<text transform="matrix(1.0057 0.1005 -9.944011e-02 0.995 653.5464 45.8704)" class="st3 st1 st4">o</text>
		<text transform="matrix(1.0038 0.1184 -0.1171 0.9931 661.8699 46.6899)" class="st3 st1 st4">p</text>
		<text transform="matrix(1.0016 0.1358 -0.1344 0.9909 672.6772 47.9777)" class="st3 st1 st4">e</text>
		<text transform="matrix(0.9958 0.1731 -0.1713 0.9852 687.8254 50.0804)" class="st3 st1 st4">H</text>
		<text transform="matrix(0.9914 0.1969 -0.1948 0.9808 704.899 53.1018)" class="st3 st1 st4">o</text>
		<text transform="matrix(0.9877 0.2147 -0.2124 0.9772 713.1035 54.7195)" class="st3 st1 st4">p</text>
		<text transform="matrix(0.9837 0.2319 -0.2295 0.9733 723.7444 57.0448)" class="st3 st1 st4">e</text>
		<text transform="matrix(0.9743 0.2687 -0.2659 0.964 738.6053 60.6)" class="st3 st1 st4">H</text>
		<text transform="matrix(0.9676 0.2921 -0.289 0.9573 755.3098 65.2609)" class="st3 st1 st4">o</text>
		<text transform="matrix(0.9621 0.3096 -0.3063 0.9519 763.3446 67.6751)" class="st3 st1 st4">p</text>
		<text transform="matrix(0.9566 0.3264 -0.3229 0.9464 773.6955 71.0188)" class="st3 st1 st4">e</text>
		<text transform="matrix(0.9436 0.3621 -0.3583 0.9336 788.1348 75.9983)" class="st3 st1 st4">H</text>
		<text transform="matrix(0.9346 0.3848 -0.3807 0.9247 804.295 82.2566)" class="st3 st1 st4">o</text>
		<text transform="matrix(0.9275 0.4016 -0.3974 0.9177 812.0596 85.4403)" class="st3 st1 st4">p</text>
		<text transform="matrix(0.9203 0.4178 -0.4133 0.9106 822.0231 89.7681)" class="st3 st1 st4">e</text>
		<text transform="matrix(0.904 0.4521 -0.4473 0.8944 835.9304 96.1358)" class="st3 st1 st4">H</text>
		<text transform="matrix(0.8928 0.4737 -0.4687 0.8833 851.4241 103.9438)" class="st3 st1 st4">o</text>
		<text transform="matrix(0.8841 0.4898 -0.4846 0.8748 858.8223 107.8565)" class="st3 st1 st4">p</text>
		<text transform="matrix(0.8754 0.5051 -0.4998 0.8661 868.3257 113.1344)" class="st3 st1 st4">e</text>
		<text transform="matrix(0.8558 0.5377 -0.532 0.8467 881.5632 120.8311)" class="st3 st1 st4">H</text>
		<text transform="matrix(0.8427 0.5581 -0.5522 0.8337 896.2034 130.093)" class="st3 st1 st4">o</text>
		<text transform="matrix(0.8325 0.5732 -0.5671 0.8237 903.1871 134.7018)" class="st3 st1 st4">p</text>
		<text transform="matrix(0.8224 0.5876 -0.5814 0.8136 912.1336 140.8779)" class="st3 st1 st4">e</text>
		<text transform="matrix(0.7997 0.6181 -0.6115 0.7912 924.572 149.8252)" class="st3 st1 st4">H</text>
		<text transform="matrix(0.7847 0.6371 -0.6303 0.7763 938.2441 160.4595)" class="st3 st1 st4">o</text>
		<text transform="matrix(0.773 0.6511 -0.6442 0.7648 944.7603 165.7348)" class="st3 st1 st4">p</text>
		<text transform="matrix(0.7616 0.6645 -0.6575 0.7535 953.063 172.7451)" class="st3 st1 st4">e</text>
		<text transform="matrix(0.7361 0.6927 -0.6853 0.7283 964.5519 182.8363)" class="st3 st1 st4">H</text>
		<text transform="matrix(0.7192 0.7102 -0.7026 0.7116 977.1493 194.7623)" class="st3 st1 st4">o</text>
		<text transform="matrix(0.7063 0.723 -0.7153 0.6988 983.1089 200.6301)" class="st3 st1 st4">p</text>
		<text transform="matrix(0.6935 0.7353 -0.7275 0.6861 990.7014 208.4212)" class="st3 st1 st4">e</text>
		<text transform="matrix(0.6653 0.7609 -0.7528 0.6582 1001.1623 219.5844)" class="st3 st1 st4">H</text>
		<text transform="matrix(0.6467 0.7767 -0.7685 0.6399 1012.5352 232.6725)" class="st3 st1 st4">o</text>
		<text transform="matrix(0.6326 0.7883 -0.78 0.6258 1017.8975 239.0932)" class="st3 st1 st4">p</text>
		<text transform="matrix(0.6186 0.7993 -0.7909 0.612 1024.6981 247.5891)" class="st3 st1 st4">e</text>
		<text transform="matrix(0.5878 0.8222 -0.8135 0.5816 1034.0161 259.712)" class="st3 st1 st4">H</text>
		<text transform="matrix(0.5677 0.8362 -0.8273 0.5617 1044.0553 273.8429)" class="st3 st1 st4">o</text>
		<text transform="matrix(0.5524 0.8464 -0.8375 0.5465 1048.7737 280.7723)" class="st3 st1 st4">p</text>
		<text transform="matrix(0.5373 0.8561 -0.847 0.5316 1054.694 289.8675)" class="st3 st1 st4">e</text>
		<text transform="matrix(0.5043 0.8759 -0.8667 0.4989 1062.7836 302.8519)" class="st3 st1 st4">H</text>
		<text transform="matrix(0.4827 0.888 -0.8786 0.4776 1071.3833 317.8987)" class="st3 st1 st4">o</text>
		<text transform="matrix(0.4663 0.8967 -0.8872 0.4614 1075.3928 325.2493)" class="st3 st1 st4">p</text>
		<text transform="matrix(0.4502 0.9049 -0.8953 0.4454 1080.4076 334.9201)" class="st3 st1 st4">e</text>
		<text transform="matrix(0.4151 0.9215 -0.9118 0.4107 1087.1656 348.6194)" class="st3 st1 st4">H</text>
		<text transform="matrix(0.3923 0.9315 -0.9216 0.3882 1094.2356 364.4449)" class="st3 st1 st4">o</text>
		<text transform="matrix(0.375 0.9386 -0.9286 0.371 1097.5026 372.1687)" class="st3 st1 st4">p</text>
		<text transform="matrix(0.3581 0.9451 -0.9351 0.3543 1101.5201 382.2588)" class="st3 st1 st4">e</text>
		<text transform="matrix(0.3214 0.9583 -0.9481 0.318 1106.8875 396.5688)" class="st3 st1 st4">H</text>
		<text transform="matrix(0.2976 0.9659 -0.9557 0.2944 1112.3533 413.0308)" class="st3 st1 st4">o</text>
		<text transform="matrix(0.2796 0.9713 -0.961 0.2767 1114.8304 421.033)" class="st3 st1 st4">p</text>
		<text transform="matrix(0.2622 0.9761 -0.9658 0.2594 1117.8215 431.4668)" class="st3 st1 st4">e</text>
		<text transform="matrix(0.2242 0.9855 -0.9751 0.2218 1121.7407 446.2594)" class="st3 st1 st4">H</text>
		<text transform="matrix(0.1998 0.9908 -0.9803 0.1977 1125.5316 463.163)" class="st3 st1 st4">o</text>
		<text transform="matrix(0.1814 0.9943 -0.9838 0.1795 1127.1981 471.3687)" class="st3 st1 st4">p</text>
		<text transform="matrix(0.1636 0.9974 -0.9868 0.1618 1129.1381 482.0724)" class="st3 st1 st4">e</text>
		<text transform="matrix(0.1251 1.0029 -0.9923 0.1238 1131.5634 497.169)" class="st3 st1 st4">H</text>
		<text transform="matrix(0.1004 1.0057 -0.995 9.938144e-02 1133.6577 514.3877)" class="st3 st1 st4">o</text>
		<text transform="matrix(8.202000e-02 1.0074 -0.9967 8.115000e-02 1134.4998 522.6978)" class="st3 st1 st4">p</text>
		<text transform="matrix(6.411000e-02 1.0087 -0.998 6.343000e-02 1135.3678 533.5493)" class="st3 st1 st4">e</text>
		<text transform="matrix(2.577000e-02 1.0104 -0.9997 2.550000e-02 1136.2904 548.8167)" class="st3 st1 st4">H</text>
		<text transform="matrix(1.656108e-02 1.0106 -0.9999 1.638543e-02 1136.6152 566.1252)" class="st3 st1 st4">o</text>
		<text transform="matrix(-1.688041e-02 1.0106 -0.9999 -1.670137e-02 1136.7 574.5126)" class="st3 st1 st4">p</text>
		<text transform="matrix(-3.466000e-02 1.0101 -0.9994 -3.429000e-02 1136.507 585.3804)" class="st3 st1 st4">e</text>
		<text transform="matrix(-7.307425e-02 1.0081 -0.9974 -7.229921e-02 1135.9327 600.6819)" class="st3 st1 st4">H</text>
		<text transform="matrix(-9.768864e-02 1.006 -0.9953 -9.665252e-02 1134.6249 617.9655)" class="st3 st1 st4">o</text>
		<text transform="matrix(-0.1161 1.004 -0.9934 -0.1149 1133.8296 626.2798)" class="st3 st1 st4">p</text>
		<text transform="matrix(-0.1341 1.0018 -0.9912 -0.1327 1132.5656 637.1054)" class="st3 st1 st4">e</text>
		<text transform="matrix(-0.1725 0.9959 -0.9853 -0.1707 1130.488 652.2498)" class="st3 st1 st4">H</text>
		<text transform="matrix(-0.197 0.9913 -0.9808 -0.1949 1127.4775 669.3077)" class="st3 st1 st4">o</text>
		<text transform="matrix(-0.2154 0.9875 -0.977 -0.2131 1125.8582 677.5283)" class="st3 st1 st4">p</text>
		<text transform="matrix(-0.233 0.9835 -0.9731 -0.2306 1123.5303 688.1335)" class="st3 st1 st4">e</text>
		<text transform="matrix(-0.2709 0.9737 -0.9634 -0.268 1119.9519 703.0174)" class="st3 st1 st4">H</text>
		<text transform="matrix(-0.2949 0.9667 -0.9565 -0.2918 1115.2526 719.7018)" class="st3 st1 st4">o</text>
		<text transform="matrix(-0.3128 0.9611 -0.9509 -0.3095 1112.8195 727.7247)" class="st3 st1 st4">p</text>
		<text transform="matrix(-0.33 0.9553 -0.9452 -0.3265 1109.4491 738.0396)" class="st3 st1 st4">e</text>
		<text transform="matrix(-0.3666 0.9419 -0.9319 -0.3627 1104.407 752.4767)" class="st3 st1 st4">H</text>
		<text transform="matrix(-0.3897 0.9326 -0.9227 -0.3856 1098.0682 768.6106)" class="st3 st1 st4">o</text>
		<text transform="matrix(-0.4069 0.9252 -0.9154 -0.4025 1094.8528 776.3439)" class="st3 st1 st4">p</text>
		<text transform="matrix(-0.4234 0.9178 -0.9081 -0.4189 1090.4639 786.2903)" class="st3 st1 st4">e</text>
		<text transform="matrix(-0.4583 0.9009 -0.8913 -0.4534 1084.0116 800.1536)" class="st3 st1 st4">H</text>
		<text transform="matrix(-0.4802 0.8894 -0.8799 -0.4751 1076.0983 815.5939)" class="st3 st1 st4">o</text>
		<text transform="matrix(-0.4964 0.8804 -0.8711 -0.4912 1072.1361 822.9588)" class="st3 st1 st4">p</text>
		<text transform="matrix(-0.512 0.8714 -0.8622 -0.5066 1066.7843 832.4194)" class="st3 st1 st4">e</text>
		<text transform="matrix(-0.5449 0.8513 -0.8423 -0.5391 1058.9958 845.5786)" class="st3 st1 st4">H</text>
		<text transform="matrix(-0.5654 0.8378 -0.8289 -0.5594 1049.5999 860.1569)" class="st3 st1 st4">o</text>
		<text transform="matrix(-0.5806 0.8273 -0.8185 -0.5744 1044.9224 867.1105)" class="st3 st1 st4">p</text>
		<text transform="matrix(-0.5951 0.817 -0.8083 -0.5888 1038.672 875.9958)" class="st3 st1 st4">e</text>
		<text transform="matrix(-0.6256 0.7939 -0.7854 -0.619 1029.6307 888.3213)" class="st3 st1 st4">H</text>
		<text transform="matrix(-0.6446 0.7785 -0.7702 -0.6378 1018.8535 901.9101)" class="st3 st1 st4">o</text>
		<text transform="matrix(-0.6586 0.7667 -0.7586 -0.6516 1013.5298 908.3617)" class="st3 st1 st4">p</text>
		<text transform="matrix(-0.6719 0.755 -0.747 -0.6648 1006.4318 916.6026)" class="st3 st1 st4">e</text>
		<text transform="matrix(-0.6999 0.7292 -0.7214 -0.6925 996.2241 927.9991)" class="st3 st1 st4">H</text>
		<text transform="matrix(-0.7173 0.7121 -0.7046 -0.7096 984.1766 940.4718)" class="st3 st1 st4">o</text>
		<text transform="matrix(-0.73 0.6991 -0.6916 -0.7222 978.2483 946.3741)" class="st3 st1 st4">p</text>
		<text transform="matrix(-0.7421 0.6862 -0.6789 -0.7342 970.3803 953.8949)" class="st3 st1 st4">e</text>
		<text transform="matrix(-0.7673 0.6578 -0.6509 -0.7592 959.1158 964.2421)" class="st3 st1 st4">H</text>
		<text transform="matrix(-0.7829 0.6392 -0.6324 -0.7746 945.918 975.4858)" class="st3 st1 st4">o</text>
		<text transform="matrix(-0.7943 0.625 -0.6184 -0.7859 939.4483 980.7845)" class="st3 st1 st4">p</text>
		<text transform="matrix(-0.8051 0.6111 -0.6046 -0.7965 930.889 987.5015)" class="st3 st1 st4">e</text>
		<text transform="matrix(-0.8275 0.5804 -0.5742 -0.8187 918.6705 996.7136)" class="st3 st1 st4">H</text>
		<text transform="matrix(-0.8412 0.5604 -0.5544 -0.8322 904.4497 1006.6251)" class="st3 st1 st4">o</text>
		<text transform="matrix(-0.8511 0.5451 -0.5393 -0.8421 897.4885 1011.2767)" class="st3 st1 st4">p</text>
		<text transform="matrix(-0.8605 0.5302 -0.5246 -0.8514 888.3285 1017.1288)" class="st3 st1 st4">e</text>
		<text transform="matrix(-0.8798 0.4975 -0.4922 -0.8705 875.2781 1025.1124)" class="st3 st1 st4">H</text>
		<text transform="matrix(-0.8915 0.4762 -0.4711 -0.8821 860.1693 1033.594)" class="st3 st1 st4">o</text>
		<text transform="matrix(-0.9 0.46 -0.4551 -0.8904 852.7839 1037.5531)" class="st3 st1 st4">p</text>
		<text transform="matrix(-0.9079 0.4442 -0.4395 -0.8982 843.0919 1042.4915)" class="st3 st1 st4">e</text>
		<text transform="matrix(-0.9239 0.4097 -0.4054 -0.9141 829.3434 1049.1639)" class="st3 st1 st4">H</text>
		<text transform="matrix(-0.9336 0.3873 -0.3832 -0.9237 813.4619 1056.1501)" class="st3 st1 st4">o</text>
		<text transform="matrix(-0.9404 0.3704 -0.3665 -0.9304 805.724 1059.3728)" class="st3 st1 st4">p</text>
		<text transform="matrix(-0.9468 0.3539 -0.3501 -0.9367 795.5963 1063.3485)" class="st3 st1 st4">e</text>
		<text transform="matrix(-0.9594 0.318 -0.3146 -0.9492 781.2527 1068.6558)" class="st3 st1 st4">H</text>
		<text transform="matrix(-0.9668 0.2948 -0.2916 -0.9565 764.7923 1074.0563)" class="st3 st1 st4">o</text>
		<text transform="matrix(-0.9719 0.2773 -0.2743 -0.9616 756.7756 1076.5112)" class="st3 st1 st4">p</text>
		<text transform="matrix(-0.9766 0.2602 -0.2575 -0.9663 746.3318 1079.4779)" class="st3 st1 st4">e</text>
		<text transform="matrix(-0.9857 0.2233 -0.221 -0.9753 731.5299 1083.3702)" class="st3 st1 st4">H</text>
		<text transform="matrix(-0.9908 0.1996 -0.1975 -0.9803 714.61 1087.15)" class="st3 st1 st4">o</text>
		<text transform="matrix(-0.9942 0.1818 -0.1799 -0.9837 706.4185 1088.8124)" class="st3 st1 st4">p</text>
		<text transform="matrix(-0.9973 0.1644 -0.1627 -0.9867 695.7033 1090.7576)" class="st3 st1 st4">e</text>
		<text transform="matrix(-1.0027 0.1271 -0.1258 -0.9921 680.6015 1093.1976)" class="st3 st1 st4">H</text>
		<text transform="matrix(-1.0054 0.1032 -0.1021 -0.9948 663.396 1095.3254)" class="st3 st1 st4">o</text>
		<text transform="matrix(-1.0071 8.532030e-02 -8.441537e-02 -0.9964 655.0749 1096.1919)" class="st3 st1 st4">p</text>
		<text transform="matrix(-1.0084 6.799182e-02 -6.727067e-02 -0.9977 644.2456 1097.0966)" class="st3 st1 st4">e</text>
		<text transform="matrix(-1.0103 3.076850e-02 -3.044215e-02 -0.9995 628.9483 1098.0793)" class="st3 st1 st4">H</text>
		<text transform="matrix(-1.0106 1.621000e-02 -1.604000e-02 -0.9999 611.603 1098.517)" class="st3 st1 st4">o</text>
		<text transform="matrix(-1.0106 -1.621000e-02 1.604000e-02 -0.9999 603.2951 1098.6578)" class="st3 st1 st4">p</text>
		<text transform="matrix(-1.0103 -2.779944e-02 2.750459e-02 -0.9996 592.3653 1098.4987)" class="st3 st1 st4">e</text>
		<text transform="matrix(-1.0086 -6.493663e-02 6.424789e-02 -0.9979 577.0854 1098.0304)" class="st3 st1 st4">H</text>
		<text transform="matrix(-1.0068 -8.876999e-02 8.783000e-02 -0.9961 559.7982 1096.8658)" class="st3 st1 st4">o</text>
		<text transform="matrix(-1.0051 -0.1067 0.1056 -0.9944 551.4438 1096.1403)" class="st3 st1 st4">p</text>
		<text transform="matrix(-1.0031 -0.1241 0.1228 -0.9924 540.6268 1094.9794)" class="st3 st1 st4">e</text>
		<text transform="matrix(-0.9978 -0.1614 0.1597 -0.9872 525.467 1093.0571)" class="st3 st1 st4">H</text>
		<text transform="matrix(-0.9936 -0.1852 0.1832 -0.9831 508.3615 1090.2366)" class="st3 st1 st4">o</text>
		<text transform="matrix(-0.9901 -0.2031 0.2009 -0.9796 500.1205 1088.7106)" class="st3 st1 st4">p</text>
		<text transform="matrix(-0.9864 -0.2203 0.218 -0.976 489.4628 1086.515)" class="st3 st1 st4">e</text>
		<text transform="matrix(-0.9774 -0.2572 0.2545 -0.9671 474.553 1083.1321)" class="st3 st1 st4">H</text>
		<text transform="matrix(-0.971 -0.2807 0.2777 -0.9607 457.8032 1078.6716)" class="st3 st1 st4">o</text>
		<text transform="matrix(-0.9657 -0.2982 0.295 -0.9555 449.7499 1076.3561)" class="st3 st1 st4">p</text>
		<text transform="matrix(-0.9604 -0.315 0.3117 -0.9502 439.373 1073.139)" class="st3 st1 st4">e</text>
		<text transform="matrix(-0.9478 -0.351 0.3472 -0.9378 424.8517 1068.322)" class="st3 st1 st4">H</text>
		<text transform="matrix(-0.9391 -0.3737 0.3698 -0.9291 408.6037 1062.2504)" class="st3 st1 st4">o</text>
		<text transform="matrix(-0.9322 -0.3906 0.3865 -0.9223 400.8158 1059.1632)" class="st3 st1 st4">p</text>
		<text transform="matrix(-0.9252 -0.4069 0.4026 -0.9154 390.7938 1054.9493)" class="st3 st1 st4">e</text>
		<text transform="matrix(-0.9092 -0.4414 0.4367 -0.8996 376.8165 1048.7482)" class="st3 st1 st4">H</text>
		<text transform="matrix(-0.8983 -0.4632 0.4582 -0.8888 361.2437 1041.1315)" class="st3 st1 st4">o</text>
		<text transform="matrix(-0.8899 -0.4793 0.4742 -0.8804 353.7928 1037.3033)" class="st3 st1 st4">p</text>
		<text transform="matrix(-0.8813 -0.4948 0.4895 -0.872 344.2231 1032.1321)" class="st3 st1 st4">e</text>
		<text transform="matrix(-0.8621 -0.5276 0.522 -0.853 330.9038 1024.5999)" class="st3 st1 st4">H</text>
		<text transform="matrix(-0.8492 -0.5481 0.5423 -0.8402 316.1474 1015.5074)" class="st3 st1 st4">o</text>
		<text transform="matrix(-0.8392 -0.5633 0.5573 -0.8303 309.1076 1010.975)" class="st3 st1 st4">p</text>
		<text transform="matrix(-0.8292 -0.5779 0.5718 -0.8204 300.0846 1004.9051)" class="st3 st1 st4">e</text>
		<text transform="matrix(-0.8069 -0.6086 0.6022 -0.7984 287.5573 996.114)" class="st3 st1 st4">H</text>
		<text transform="matrix(-0.7921 -0.6278 0.6211 -0.7837 273.7531 985.6354)" class="st3 st1 st4">o</text>
		<text transform="matrix(-0.7807 -0.6419 0.6351 -0.7724 267.1949 980.4525)" class="st3 st1 st4">p</text>
		<text transform="matrix(-0.7693 -0.6555 0.6486 -0.7612 258.788 973.5244)" class="st3 st1 st4">e</text>
		<text transform="matrix(-0.7442 -0.6839 0.6767 -0.7363 247.1762 963.565)" class="st3 st1 st4">H</text>
		<text transform="matrix(-0.7275 -0.7016 0.6942 -0.7198 234.4558 951.8054)" class="st3 st1 st4">o</text>
		<text transform="matrix(-0.7148 -0.7146 0.707 -0.7072 228.4269 946.0048)" class="st3 st1 st4">p</text>
		<text transform="matrix(-0.7021 -0.727 0.7193 -0.6947 220.7429 938.305)" class="st3 st1 st4">e</text>
		<text transform="matrix(-0.6743 -0.7529 0.745 -0.6671 210.15 927.2687)" class="st3 st1 st4">H</text>
		<text transform="matrix(-0.6559 -0.769 0.7608 -0.6489 198.6232 914.3159)" class="st3 st1 st4">o</text>
		<text transform="matrix(-0.6419 -0.7807 0.7725 -0.6351 193.1863 907.959)" class="st3 st1 st4">p</text>
		<text transform="matrix(-0.628 -0.7919 0.7835 -0.6214 186.2859 899.5471)" class="st3 st1 st4">e</text>
		<text transform="matrix(-0.5976 -0.8151 0.8065 -0.5913 176.8113 887.5188)" class="st3 st1 st4">H</text>
		<text transform="matrix(-0.5776 -0.8294 0.8206 -0.5715 166.6068 873.5099)" class="st3 st1 st4">o</text>
		<text transform="matrix(-0.5625 -0.8398 0.8309 -0.5565 161.8208 866.6589)" class="st3 st1 st4">p</text>
		<text transform="matrix(-0.5475 -0.8496 0.8406 -0.5417 155.7679 857.5986)" class="st3 st1 st4">e</text>
		<text transform="matrix(-0.5147 -0.8699 0.8606 -0.5092 147.5285 844.7198)" class="st3 st1 st4">H</text>
		<text transform="matrix(-0.4933 -0.8822 0.8728 -0.4881 138.7534 829.7833)" class="st3 st1 st4">o</text>
		<text transform="matrix(-0.477 -0.8911 0.8816 -0.472 134.6584 822.4858)" class="st3 st1 st4">p</text>
		<text transform="matrix(-0.4611 -0.8994 0.8899 -0.4562 129.531 812.8818)" class="st3 st1 st4">e</text>
		<text transform="matrix(-0.4262 -0.9165 0.9067 -0.4217 122.6024 799.2567)" class="st3 st1 st4">H</text>
		<text transform="matrix(-0.4036 -0.9267 0.9168 -0.3993 115.3473 783.5266)" class="st3 st1 st4">o</text>
		<text transform="matrix(-0.3864 -0.934 0.924 -0.3823 111.9918 775.8521)" class="st3 st1 st4">p</text>
		<text transform="matrix(-0.3696 -0.9407 0.9308 -0.3656 107.8468 765.7953)" class="st3 st1 st4">e</text>
		<text transform="matrix(-0.333 -0.9543 0.9442 -0.3294 102.2947 751.5262)" class="st3 st1 st4">H</text>
		<text transform="matrix(-0.3093 -0.9622 0.952 -0.306 96.6453 735.1713)" class="st3 st1 st4">o</text>
		<text transform="matrix(-0.2914 -0.9678 0.9575 -0.2883 94.0666 727.188)" class="st3 st1 st4">p</text>
		<text transform="matrix(-0.274 -0.9729 0.9626 -0.2711 90.9458 716.7791)" class="st3 st1 st4">e</text>
		<text transform="matrix(-0.2361 -0.9827 0.9723 -0.2336 86.8478 702.0397)" class="st3 st1 st4">H</text>
		<text transform="matrix(-0.2118 -0.9883 0.9778 -0.2095 82.8523 685.1795)" class="st3 st1 st4">o</text>
		<text transform="matrix(-0.1934 -0.992 0.9815 -0.1914 81.0845 676.9844)" class="st3 st1 st4">p</text>
		<text transform="matrix(-0.1756 -0.9953 0.9848 -0.1738 79.0186 666.3253)" class="st3 st1 st4">e</text>
		<text transform="matrix(-0.1372 -1.0014 0.9907 -0.1357 76.41 651.2469)" class="st3 st1 st4">H</text>
		<text transform="matrix(-0.1126 -1.0044 0.9938 -0.1114 74.1121 634.0795)" class="st3 st1 st4">o</text>
		<text transform="matrix(-9.407833e-02 -1.0063 0.9957 -9.308050e-02 73.1665 625.7495)" class="st3 st1 st4">p</text>
		<text transform="matrix(-7.619335e-02 -1.0078 0.9972 -7.538522e-02 72.1688 614.9329)" class="st3 st1 st4">e</text>
		<text transform="matrix(-3.778913e-02 -1.01 0.9993 -3.738832e-02 71.0659 599.6737)" class="st3 st1 st4">H</text>
		<text transform="matrix(-1.656108e-02 -1.0106 0.9999 -1.638543e-02 70.4836 582.3249)" class="st3 st1 st4">o</text>
		<text transform="matrix(1.656108e-02 -1.0106 0.9999 1.638543e-02 70.2848 574.0132)" class="st3 st1 st4">p</text>
		<text transform="matrix(2.269069e-02 -1.0105 0.9997 2.245003e-02 70.414 563.0931)" class="st3 st1 st4">e</text>
		<text transform="matrix(6.098951e-02 -1.0089 0.9982 6.034264e-02 70.8061 547.8155)" class="st3 st1 st4">H</text>
		<text transform="matrix(8.559267e-02 -1.0071 0.9964 8.468485e-02 71.9065 530.5129)" class="st3 st1 st4">o</text>
		<text transform="matrix(0.1041 -1.0053 0.9947 0.1029 72.6031 522.1694)" class="st3 st1 st4">p</text>
		<text transform="matrix(0.122 -1.0033 0.9927 0.1207 73.7346 511.3603)" class="st3 st1 st4">e</text>
		<text transform="matrix(0.1605 -0.9979 0.9873 0.1588 75.6313 496.1791)" class="st3 st1 st4">H</text>
		<text transform="matrix(0.185 -0.9936 0.9831 0.183 78.4344 479.0851)" class="st3 st1 st4">o</text>
		<text transform="matrix(0.2033 -0.9901 0.9796 0.2012 79.954 470.8557)" class="st3 st1 st4">p</text>
		<text transform="matrix(0.2211 -0.9862 0.9758 0.2188 82.1535 460.2067)" class="st3 st1 st4">e</text>
		<text transform="matrix(0.2591 -0.9769 0.9666 0.2563 85.554 445.2773)" class="st3 st1 st4">H</text>
		<text transform="matrix(0.2831 -0.9702 0.96 0.2801 90.0468 428.5441)" class="st3 st1 st4">o</text>
		<text transform="matrix(0.3011 -0.9648 0.9546 0.2979 92.3808 420.5034)" class="st3 st1 st4">p</text>
		<text transform="matrix(0.3184 -0.9593 0.9491 0.315 95.637 410.1129)" class="st3 st1 st4">e</text>
		<text transform="matrix(0.3552 -0.9463 0.9362 0.3514 100.5023 395.6179)" class="st3 st1 st4">H</text>
		<text transform="matrix(0.3784 -0.9372 0.9273 0.3744 106.6406 379.4192)" class="st3 st1 st4">o</text>
		<text transform="matrix(0.3957 -0.9301 0.9202 0.3915 109.7679 371.6417)" class="st3 st1 st4">p</text>
		<text transform="matrix(0.4122 -0.9228 0.913 0.4079 114.0286 361.6576)" class="st3 st1 st4">e</text>
		<text transform="matrix(0.4474 -0.9063 0.8967 0.4427 120.3193 347.7032)" class="st3 st1 st4">H</text>
		<text transform="matrix(0.4695 -0.8951 0.8856 0.4645 128.0397 332.1854)" class="st3 st1 st4">o</text>
		<text transform="matrix(0.4859 -0.8863 0.8769 0.4807 131.9178 324.7678)" class="st3 st1 st4">p</text>
		<text transform="matrix(0.5015 -0.8775 0.8682 0.4962 137.1552 315.2382)" class="st3 st1 st4">e</text>
		<text transform="matrix(0.5346 -0.8577 0.8486 0.529 144.7792 302.0012)" class="st3 st1 st4">H</text>
		<text transform="matrix(0.5554 -0.8445 0.8355 0.5495 154.0021 287.3058)" class="st3 st1 st4">o</text>
		<text transform="matrix(0.5707 -0.8342 0.8254 0.5646 158.584 280.3167)" class="st3 st1 st4">p</text>
		<text transform="matrix(0.5853 -0.824 0.8152 0.5791 164.7441 271.3333)" class="st3 st1 st4">e</text>
		<text transform="matrix(0.6161 -0.8012 0.7927 0.6096 173.6408 258.8987)" class="st3 st1 st4">H</text>
		<text transform="matrix(0.6353 -0.7861 0.7777 0.6286 184.2566 245.1794)" class="st3 st1 st4">o</text>
		<text transform="matrix(0.6495 -0.7744 0.7662 0.6426 189.5051 238.6683)" class="st3 st1 st4">p</text>
		<text transform="matrix(0.663 -0.7629 0.7548 0.656 196.5045 230.3407)" class="st3 st1 st4">e</text>
		<text transform="matrix(0.6913 -0.7374 0.7296 0.6839 206.577 218.8261)" class="st3 st1 st4">H</text>
		<text transform="matrix(0.7088 -0.7205 0.7129 0.7013 218.4754 206.212)" class="st3 st1 st4">o</text>
		<text transform="matrix(0.7217 -0.7076 0.7001 0.714 224.3342 200.2399)" class="st3 st1 st4">p</text>
		<text transform="matrix(0.7339 -0.6949 0.6875 0.7261 232.0952 192.6476)" class="st3 st1 st4">e</text>
		<text transform="matrix(0.7595 -0.6668 0.6597 0.7515 243.2503 182.1547)" class="st3 st1 st4">H</text>
		<text transform="matrix(0.7753 -0.6484 0.6415 0.7671 256.3123 170.7576)" class="st3 st1 st4">o</text>
		<text transform="matrix(0.7869 -0.6344 0.6276 0.7785 262.7156 165.3864)" class="st3 st1 st4">p</text>
		<text transform="matrix(0.7979 -0.6205 0.6139 0.7894 271.2111 158.5545)" class="st3 st1 st4">e</text>
		<text transform="matrix(0.8206 -0.5901 0.5838 0.8119 283.3149 149.2049)" class="st3 st1 st4">H</text>
		<text transform="matrix(0.8345 -0.5702 0.5642 0.8256 297.4118 139.1308)" class="st3 st1 st4">o</text>
		<text transform="matrix(0.8446 -0.5551 0.5492 0.8357 304.3143 134.401)" class="st3 st1 st4">p</text>
		<text transform="matrix(0.8542 -0.5403 0.5345 0.8451 313.4203 128.4303)" class="st3 st1 st4">e</text>
		<text transform="matrix(0.8739 -0.5078 0.5024 0.8646 326.3645 120.302)" class="st3 st1 st4">H</text>
		<text transform="matrix(0.8859 -0.4866 0.4815 0.8765 341.3851 111.6355)" class="st3 st1 st4">o</text>
		<text transform="matrix(0.8945 -0.4706 0.4656 0.885 348.7165 107.5933)" class="st3 st1 st4">p</text>
		<text transform="matrix(0.9026 -0.4549 0.4501 0.893 358.3415 102.5443)" class="st3 st1 st4">e</text>
	</g>
	<g>
		<text transform="matrix(-0.504 0.8759 -0.8669 -0.4985 1052.6636 815.5246)" class="st5 st1 st6">L</text>
		<text transform="matrix(-0.5245 0.8638 -0.8548 -0.5189 1044.6727 829.3286)" class="st5 st1 st7">o</text>
		<text transform="matrix(-0.5388 0.8549 -0.8461 -0.533 1040.3257 836.4895)" class="st5 st1 st8">v</text>
		<text transform="matrix(-0.5524 0.8462 -0.8375 -0.5465 1035.7064 843.8122)" class="st5 st1 st9">e</text>
		<text transform="matrix(-0.5839 0.8248 -0.8163 -0.5776 1027.2948 856.5823)" class="st5 st1 st10">L</text>
		<text transform="matrix(-0.6032 0.8108 -0.8025 -0.5967 1018.049 869.5696)" class="st5 st1 st11">o</text>
		<text transform="matrix(-0.6165 0.8007 -0.7925 -0.6099 1013.0465 876.2944)" class="st5 st1 st11">v</text>
		<text transform="matrix(-0.6292 0.7908 -0.7827 -0.6224 1007.7744 883.1367)" class="st5 st1 st11">e</text>
		<text transform="matrix(-0.6584 0.7667 -0.7588 -0.6513 998.1983 895.0721)" class="st5 st1 st12">L</text>
		<text transform="matrix(-0.6762 0.7511 -0.7433 -0.6689 987.7783 907.1384)" class="st5 st1 st13">o</text>
		<text transform="matrix(-0.6885 0.7399 -0.7322 -0.6811 982.1687 913.3704)" class="st5 st1 st4">v</text>
		<text transform="matrix(-0.7001 0.7289 -0.7214 -0.6926 976.2805 919.6946)" class="st5 st1 st4">e</text>
		<text transform="matrix(-0.7267 0.7024 -0.6952 -0.7188 965.6409 930.6829)" class="st5 st1 st4">L</text>
		<text transform="matrix(-0.7428 0.6854 -0.6784 -0.7347 954.14 941.7386)" class="st5 st1 st4">o</text>
		<text transform="matrix(-0.7538 0.6733 -0.6664 -0.7456 947.9767 947.428)" class="st5 st1 st4">v</text>
		<text transform="matrix(-0.7642 0.6615 -0.6546 -0.7559 941.512 953.2001)" class="st5 st1 st4">e</text>
		<text transform="matrix(-0.7878 0.6331 -0.6266 -0.7793 929.923 963.1521)" class="st5 st1 st4">L</text>
		<text transform="matrix(-0.8022 0.6148 -0.6085 -0.7936 917.4584 973.1139)" class="st5 st1 st4">o</text>
		<text transform="matrix(-0.8121 0.6018 -0.5956 -0.8033 910.8147 978.2058)" class="st5 st1 st4">v</text>
		<text transform="matrix(-0.8214 0.5889 -0.5828 -0.8126 903.8447 983.3666)" class="st5 st1 st4">e</text>
		<text transform="matrix(-0.8428 0.558 -0.5523 -0.8336 891.3826 992.2269)" class="st5 st1 st14">L</text>
		<text transform="matrix(-0.8556 0.5382 -0.5327 -0.8463 878.0753 1000.9884)" class="st5 st1 st15">o</text>
		<text transform="matrix(-0.8643 0.5241 -0.5187 -0.8549 870.9888 1005.449)" class="st5 st1 st16">v</text>
		<text transform="matrix(-0.8725 0.5103 -0.505 -0.8631 863.5646 1009.9462)" class="st5 st1 st15">e</text>
		<text transform="matrix(-0.891 0.4773 -0.4724 -0.8814 850.3475 1017.6056)" class="st5 st1 st17">L</text>
		<text transform="matrix(-0.9021 0.4561 -0.4515 -0.8923 836.2686 1025.0983)" class="st5 st1 st18">o</text>
		<text transform="matrix(-0.9095 0.4411 -0.4366 -0.8996 828.7775 1028.8854)" class="st5 st1 st19">v</text>
		<text transform="matrix(-0.9164 0.4266 -0.4222 -0.9065 821.0028 1032.655)" class="st5 st1 st18">e</text>
		<text transform="matrix(-0.9318 0.3918 -0.3878 -0.9218 807.1146 1039.0522)" class="st5 st1 st20">L</text>
		<text transform="matrix(-0.9408 0.3697 -0.3659 -0.9307 792.3981 1045.1906)" class="st5 st1 st21">o</text>
		<text transform="matrix(-0.9469 0.354 -0.3504 -0.9366 784.5844 1048.2616)" class="st5 st1 st22">v</text>
		<text transform="matrix(-0.9524 0.3388 -0.3353 -0.9421 776.488 1051.2858)" class="st5 st1 st23">e</text>
		<text transform="matrix(-0.9645 0.3027 -0.2996 -0.9541 762.0668 1056.3494)" class="st5 st1 st23">L</text>
		<text transform="matrix(-0.9714 0.2798 -0.277 -0.9609 746.8351 1061.0839)" class="st5 st1 st24">o</text>
		<text transform="matrix(-0.9759 0.2637 -0.261 -0.9653 738.7745 1063.407)" class="st5 st1 st25">v</text>
		<text transform="matrix(-0.98 0.2481 -0.2455 -0.9694 730.4266 1065.6584)" class="st5 st1 st24">e</text>
		<text transform="matrix(-0.9886 0.211 -0.2089 -0.9779 715.5817 1069.351)" class="st5 st1 st26">L</text>
		<text transform="matrix(-0.9934 0.1876 -0.1857 -0.9826 699.9667 1072.6405)" class="st5 st1 st27">o</text>
		<text transform="matrix(-0.9963 0.1711 -0.1694 -0.9855 691.7326 1074.1971)" class="st5 st1 st28">v</text>
		<text transform="matrix(-0.9989 0.1552 -0.1537 -0.9881 683.2163 1075.6569)" class="st5 st1 st29">e</text>
		<text transform="matrix(-1.0041 0.1176 -0.1164 -0.9932 668.088 1077.9458)" class="st5 st1 st29">L</text>
		<text transform="matrix(-1.0066 9.390111e-02 -9.298101e-02 -0.9957 652.2488 1079.7581)" class="st5 st1 st30">o</text>
		<text transform="matrix(-1.008 7.730898e-02 -7.654890e-02 -0.9971 643.9239 1080.537)" class="st5 st1 st30">v</text>
		<text transform="matrix(-1.0091 6.117753e-02 -6.058746e-02 -0.9982 635.2737 1081.1963)" class="st5 st1 st31">e</text>
		<text transform="matrix(-1.0107 2.324289e-02 -2.304287e-02 -0.9997 620.0025 1082.057)" class="st5 st1 st31">L</text>
		<text transform="matrix(-1.011 -5.200623e-04 4.700563e-04 -1 604.0827 1082.3831)" class="st5 st1 st32">o</text>
		<text transform="matrix(-1.0108 -1.727216e-02 1.704213e-02 -0.9999 595.6752 1082.3792)" class="st5 st1 st31">v</text>
		<text transform="matrix(-1.0104 -3.335422e-02 3.296417e-02 -0.9995 587.047 1082.2285)" class="st5 st1 st33">e</text>
		<text transform="matrix(-1.0084 -7.135903e-02 7.057893e-02 -0.9975 571.7371 1081.6594)" class="st5 st1 st33">L</text>
		<text transform="matrix(-1.0065 -9.514162e-02 9.411150e-02 -0.9956 555.8297 1080.4911)" class="st5 st1 st32">o</text>
		<text transform="matrix(-1.0048 -0.1117 0.1105 -0.9939 547.5215 1079.7069)" class="st5 st1 st31">v</text>
		<text transform="matrix(-1.0028 -0.1278 0.1264 -0.992 538.9088 1078.7455)" class="st5 st1 st31">e</text>
		<text transform="matrix(-0.9973 -0.1656 0.1638 -0.9865 523.7314 1076.7502)" class="st5 st1 st31">L</text>
		<text transform="matrix(-0.9931 -0.1891 0.1871 -0.9823 508.0059 1074.0931)" class="st5 st1 st31">o</text>
		<text transform="matrix(-0.9898 -0.2056 0.2034 -0.9791 499.7845 1072.5304)" class="st5 st1 st32">v</text>
		<text transform="matrix(-0.9864 -0.2215 0.2192 -0.9757 491.3195 1070.7692)" class="st5 st1 st31">e</text>
		<text transform="matrix(-0.9773 -0.2587 0.256 -0.9667 476.4027 1067.3535)" class="st5 st1 st30">L</text>
		<text transform="matrix(-0.9708 -0.282 0.279 -0.9603 461.0036 1063.2327)" class="st5 st1 st30">o</text>
		<text transform="matrix(-0.966 -0.2982 0.295 -0.9555 452.948 1060.8933)" class="st5 st1 st29">v</text>
		<text transform="matrix(-0.961 -0.3138 0.3105 -0.9506 444.6716 1058.338)" class="st5 st1 st27">e</text>
		<text transform="matrix(-0.9483 -0.3502 0.3465 -0.938 430.1615 1053.5309)" class="st5 st1 st27">L</text>
		<text transform="matrix(-0.9397 -0.3728 0.3689 -0.9294 415.226 1047.969)" class="st5 st1 st28">o</text>
		<text transform="matrix(-0.9332 -0.3886 0.3845 -0.9231 407.4432 1044.8834)" class="st5 st1 st34">v</text>
		<text transform="matrix(-0.9268 -0.4038 0.3996 -0.9167 399.4356 1041.5454)" class="st5 st1 st34">e</text>
		<text transform="matrix(-0.9106 -0.4391 0.4345 -0.9007 385.4493 1035.3817)" class="st5 st1 st25">L</text>
		<text transform="matrix(-0.8997 -0.4609 0.4561 -0.8899 371.1175 1028.421)" class="st5 st1 st35">o</text>
		<text transform="matrix(-0.8917 -0.4761 0.4711 -0.8821 363.6583 1024.6028)" class="st5 st1 st35">v</text>
		<text transform="matrix(-0.8838 -0.4907 0.4855 -0.8742 356.0216 1020.5214)" class="st5 st1 st36">e</text>
		<text transform="matrix(-0.8642 -0.5244 0.5189 -0.8548 342.6904 1013.0471)" class="st5 st1 st22">L</text>
		<text transform="matrix(-0.8512 -0.5452 0.5395 -0.842 329.0869 1004.7408)" class="st5 st1 st20">o</text>
		<text transform="matrix(-0.8418 -0.5596 0.5538 -0.8327 322.0287 1000.2213)" class="st5 st1 st37">v</text>
		<text transform="matrix(-0.8325 -0.5734 0.5674 -0.8234 314.8143 995.4219)" class="st5 st1 st37">e</text>
		<text transform="matrix(-0.8097 -0.6051 0.5988 -0.8009 302.2774 986.7108)" class="st5 st1 st19">L</text>
		<text transform="matrix(-0.7948 -0.6245 0.618 -0.7861 289.5257 977.1236)" class="st5 st1 st38">o</text>
		<text transform="matrix(-0.7841 -0.638 0.6313 -0.7755 282.9293 971.9437)" class="st5 st1 st19">v</text>
		<text transform="matrix(-0.7735 -0.6507 0.6439 -0.7651 276.2261 966.4842)" class="st5 st1 st39">e</text>
		<text transform="matrix(-0.7478 -0.68 0.6729 -0.7397 264.5705 956.5977)" class="st5 st1 st16">L</text>
		<text transform="matrix(-0.7312 -0.6978 0.6906 -0.7233 252.8095 945.8423)" class="st5 st1 st14">o</text>
		<text transform="matrix(-0.7193 -0.71 0.7027 -0.7115 246.7324 940.0436)" class="st5 st1 st4">v</text>
		<text transform="matrix(-0.7077 -0.7216 0.7141 -0.7 240.5955 933.9831)" class="st5 st1 st4">e</text>
		<text transform="matrix(-0.6797 -0.748 0.7402 -0.6723 229.9318 923.0189)" class="st5 st1 st4">L</text>
		<text transform="matrix(-0.6617 -0.764 0.756 -0.6545 219.2316 911.1777)" class="st5 st1 st4">o</text>
		<text transform="matrix(-0.6608 -0.7648 0.7568 -0.6536 213.8255 904.8356)" class="st5 st1 st4">v</text>
		<text transform="matrix(-0.6354 -0.786 0.7778 -0.6284 208.1917 898.2189)" class="st5 st1 st4">e</text>
		<text transform="matrix(-0.6062 -0.8087 0.8003 -0.5996 198.6121 886.2938)" class="st5 st1 st4">L</text>
		<text transform="matrix(-0.5867 -0.823 0.8144 -0.5803 189.0822 873.5068)" class="st5 st1 st4">o</text>
		<text transform="matrix(-0.5728 -0.8327 0.824 -0.5666 184.2323 866.7081)" class="st5 st1 st4">v</text>
		<text transform="matrix(-0.5591 -0.8419 0.8332 -0.553 179.3149 859.5538)" class="st5 st1 st4">e</text>
		<text transform="matrix(-0.5264 -0.8627 0.8538 -0.5206 170.9191 846.7979)" class="st5 st1 st40">L</text>
		<text transform="matrix(-0.5054 -0.8752 0.8661 -0.4999 162.6558 833.1688)" class="st5 st1 st41">o</text>
		<text transform="matrix(-0.4904 -0.8837 0.8745 -0.4851 158.4608 825.9075)" class="st5 st1 st12">v</text>
		<text transform="matrix(-0.4758 -0.8916 0.8823 -0.4707 154.2648 818.3424)" class="st5 st1 st41">e</text>
		<text transform="matrix(-0.441 -0.9093 0.8998 -0.4362 147.1255 804.8277)" class="st5 st1 st10">L</text>
		<text transform="matrix(-0.4188 -0.9197 0.9102 -0.4142 140.2073 790.4601)" class="st5 st1 st42">o</text>
		<text transform="matrix(-0.4031 -0.9267 0.9171 -0.3987 136.7354 782.8407)" class="st5 st1 st8">v</text>
		<text transform="matrix(-0.3878 -0.9332 0.9235 -0.3836 133.2882 774.9091)" class="st5 st1 st43">e</text>
		<text transform="matrix(-0.3515 -0.9475 0.9376 -0.3476 127.4805 760.7701)" class="st5 st1 st44">L</text>
		<text transform="matrix(-0.3284 -0.9557 0.9458 -0.3248 121.978 745.8082)" class="st5 st1 st6">o</text>
		<text transform="matrix(-0.3122 -0.9611 0.9511 -0.3087 119.2579 737.8985)" class="st5 st1 st45">v</text>
		<text transform="matrix(-0.2964 -0.9661 0.9561 -0.2931 116.5882 729.6713)" class="st5 st1 st45">e</text>
		<text transform="matrix(-0.259 -0.9768 0.9666 -0.2561 112.1653 715.0312)" class="st5 st1 st46">L</text>
		<text transform="matrix(-0.2353 -0.9827 0.9725 -0.2327 108.1213 699.6046)" class="st5 st1 st47">o</text>
		<text transform="matrix(-0.2187 -0.9865 0.9763 -0.2163 106.1682 691.4539)" class="st5 st1 st47">v</text>
		<text transform="matrix(-0.2026 -0.99 0.9797 -0.2004 104.3003 683.0156)" class="st5 st1 st47">e</text>
		<text transform="matrix(-0.1646 -0.997 0.9867 -0.1627 101.2945 668.0103)" class="st5 st1 st48">L</text>
		<text transform="matrix(-0.1407 -1.0006 0.9903 -0.1391 98.7467 652.3003)" class="st5 st1 st49">o</text>
		<text transform="matrix(-0.1239 -1.0029 0.9925 -0.1225 97.5768 643.9904)" class="st5 st1 st48">v</text>
		<text transform="matrix(-0.1076 -1.0047 0.9943 -0.1064 96.5173 635.3998)" class="st5 st1 st50">e</text>
		<text transform="matrix(-6.938198e-02 -1.0081 0.9976 -6.859208e-02 94.9529 620.1946)" class="st5 st1 st51">L</text>
		<text transform="matrix(-4.536476e-02 -1.0095 0.999 -4.483481e-02 93.9011 604.2766)" class="st5 st1 st51">o</text>
		<text transform="matrix(-2.860659e-02 -1.0101 0.9996 -2.825663e-02 93.5242 595.9373)" class="st5 st1 st50">v</text>
		<text transform="matrix(-1.233847e-02 -1.0104 0.9999 -1.215849e-02 93.281 587.2745)" class="st5 st1 st52">e</text>
		<text transform="matrix(2.587693e-02 -1.0101 0.9997 2.563696e-02 93.1587 571.9708)" class="st5 st1 st50">L</text>
		<text transform="matrix(4.976381e-02 -1.0092 0.9988 4.926387e-02 93.6102 556.0338)" class="st5 st1 st52">o</text>
		<text transform="matrix(6.646161e-02 -1.0083 0.9978 6.578170e-02 94.0209 547.6777)" class="st5 st1 st53">v</text>
		<text transform="matrix(8.256967e-02 -1.0071 0.9967 8.171978e-02 94.5917 539.0557)" class="st5 st1 st53">e</text>
		<text transform="matrix(0.1204 -1.0033 0.9929 0.1192 95.9051 523.802)" class="st5 st1 st54">L</text>
		<text transform="matrix(0.144 -1.0002 0.9898 0.1425 97.8457 507.9928)" class="st5 st1 st50">o</text>
		<text transform="matrix(0.1606 -0.9976 0.9873 0.1589 99.04 499.7009)" class="st5 st1 st50">v</text>
		<text transform="matrix(0.1765 -0.9949 0.9846 0.1746 100.4168 491.1592)" class="st5 st1 st50">e</text>
		<text transform="matrix(0.2137 -0.9876 0.9774 0.2115 103.1512 476.1065)" class="st5 st1 st53">L</text>
		<text transform="matrix(0.2369 -0.9823 0.9721 0.2344 106.5628 460.5401)" class="st5 st1 st52">o</text>
		<text transform="matrix(0.2531 -0.9783 0.9681 0.2504 108.5255 452.3971)" class="st5 st1 st51">v</text>
		<text transform="matrix(0.2687 -0.9741 0.964 0.2659 110.7016 443.9964)" class="st5 st1 st50">e</text>
		<text transform="matrix(0.3051 -0.9633 0.9534 0.3019 114.8247 429.2913)" class="st5 st1 st48">L</text>
		<text transform="matrix(0.3277 -0.9559 0.946 0.3242 119.677 414.1097)" class="st5 st1 st49">o</text>
		<text transform="matrix(0.3435 -0.9503 0.9405 0.3399 122.3983 406.1734)" class="st5 st1 st49">v</text>
		<text transform="matrix(0.3587 -0.9447 0.9349 0.3548 125.3396 398.0428)" class="st5 st1 st49">e</text>
		<text transform="matrix(0.3939 -0.9306 0.9209 0.3897 130.8227 383.7795)" class="st5 st1 st47">L</text>
		<text transform="matrix(0.4158 -0.921 0.9115 0.4113 137.075 369.1182)" class="st5 st1 st46">o</text>
		<text transform="matrix(0.431 -0.914 0.9045 0.4264 140.5291 361.463)" class="st5 st1 st46">v</text>
		<text transform="matrix(0.4456 -0.907 0.8976 0.4408 144.2229 353.6383)" class="st5 st1 st45">e</text>
		<text transform="matrix(0.4795 -0.8895 0.8804 0.4743 151.019 339.9526)" class="st5 st1 st44">L</text>
		<text transform="matrix(0.5004 -0.878 0.8689 0.495 158.6179 325.9406)" class="st5 st1 st7">o</text>
		<text transform="matrix(0.5148 -0.8696 0.8606 0.5093 162.7647 318.6628)" class="st5 st1 st7">v</text>
		<text transform="matrix(0.5287 -0.8612 0.8523 0.523 167.1785 311.2174)" class="st5 st1 st7">e</text>
		<text transform="matrix(0.5608 -0.8407 0.832 0.5548 175.2363 298.2114)" class="st5 st1 st8">L</text>
		<text transform="matrix(0.5805 -0.8272 0.8187 0.5743 184.1228 284.9706)" class="st5 st1 st9">o</text>
		<text transform="matrix(0.5941 -0.8175 0.8091 0.5877 188.9308 278.1149)" class="st5 st1 st42">v</text>
		<text transform="matrix(0.6071 -0.8079 0.7996 0.6006 194.0211 271.1163)" class="st5 st1 st55">e</text>
		<text transform="matrix(0.6371 -0.7846 0.7765 0.6302 203.2603 258.9252)" class="st5 st1 st12">L</text>
		<text transform="matrix(0.6553 -0.7694 0.7614 0.6482 213.3398 246.5793)" class="st5 st1 st12">o</text>
		<text transform="matrix(0.6679 -0.7585 0.7507 0.6607 218.7808 240.1891)" class="st5 st1 st13">v</text>
		<text transform="matrix(0.6799 -0.7478 0.7401 0.6725 224.4993 233.7)" class="st5 st1 st4">e</text>
		<text transform="matrix(0.7073 -0.722 0.7145 0.6996 234.8357 222.4241)" class="st5 st1 st4">L</text>
		<text transform="matrix(0.7239 -0.7054 0.6981 0.716 246.0186 211.0685)" class="st5 st1 st4">o</text>
		<text transform="matrix(0.7352 -0.6935 0.6864 0.7273 252.0081 205.2301)" class="st5 st1 st4">v</text>
		<text transform="matrix(0.746 -0.6819 0.6749 0.738 258.3165 199.2836)" class="st5 st1 st4">e</text>
		<text transform="matrix(0.7652 -0.6603 0.6535 0.7569 269.7162 189.0381)" class="st5 st1 st4">L</text>
		<text transform="matrix(0.786 -0.6355 0.6289 0.7775 281.8151 178.7305)" class="st5 st1 st4">o</text>
		<text transform="matrix(0.7955 -0.6235 0.6171 0.7869 288.3399 173.4471)" class="st5 st1 st4">v</text>
		<text transform="matrix(0.8051 -0.611 0.6047 0.7964 295.1634 168.1019)" class="st5 st1 st4">e</text>
		<text transform="matrix(0.8272 -0.5809 0.5749 0.8182 307.385 158.9055)" class="st5 st1 st4">L</text>
		<text transform="matrix(0.8404 -0.5615 0.5557 0.8314 320.4381 149.7904)" class="st5 st1 st4">o</text>
		<text transform="matrix(0.8496 -0.5476 0.542 0.8404 327.4125 145.1303)" class="st5 st1 st14">v</text>
		<text transform="matrix(0.8582 -0.5341 0.5286 0.8489 334.7001 140.4342)" class="st5 st1 st15">e</text>
		<text transform="matrix(0.8775 -0.5017 0.4965 0.868 347.713 132.4095)" class="st5 st1 st39">L</text>
		<text transform="matrix(0.8891 -0.4809 0.4759 0.8795 361.5818 124.5313)" class="st5 st1 st19">o</text>
		<text transform="matrix(0.8969 -0.4662 0.4614 0.8872 368.9303 120.5539)" class="st5 st1 st38">v</text>
		<text transform="matrix(0.9042 -0.4518 0.4471 0.8945 376.6241 116.5565)" class="st5 st1 st38">e</text>
		<text transform="matrix(0.9206 -0.4175 0.4132 0.9106 390.3274 109.7806)" class="st5 st1 st18">L</text>
		<text transform="matrix(0.9302 -0.3956 0.3916 0.9201 404.8613 103.2381)" class="st5 st1 st20">o</text>
		<text transform="matrix(0.9367 -0.3801 0.3762 0.9265 412.5869 99.9502)" class="st5 st1 st22">v</text>
		<text transform="matrix(0.9426 -0.3651 0.3614 0.9324 420.5984 96.7032)" class="st5 st1 st36">e</text>
		<text transform="matrix(0.9557 -0.3293 0.3259 0.9454 434.9019 91.2304)" class="st5 st1 st36">L</text>
		<text transform="matrix(0.9633 -0.3066 0.3035 0.9528 449.9794 86.0798)" class="st5 st1 st24">o</text>
		<text transform="matrix(0.9682 -0.2907 0.2877 0.9577 457.9462 83.5417)" class="st5 st1 st24">v</text>
		<text transform="matrix(0.9727 -0.2751 0.2723 0.9622 466.246 81.0535)" class="st5 st1 st24">e</text>
		<text transform="matrix(0.9824 -0.2383 0.2359 0.9718 480.9759 76.9532)" class="st5 st1 st34">L</text>
		<text transform="matrix(0.9878 -0.215 0.2129 0.9771 496.4944 73.2331)" class="st5 st1 st28">o</text>
		<text transform="matrix(0.9912 -0.1987 0.1967 0.9805 504.6729 71.4507)" class="st5 st1 st26">v</text>
		<text transform="matrix(0.9943 -0.1828 0.181 0.9835 513.1595 69.7529)" class="st5 st1 st27">e</text>
		<text transform="matrix(1.0004 -0.1453 0.1438 0.9896 528.2258 67.0453)" class="st5 st1 st29">L</text>
		<text transform="matrix(1.0036 -0.1217 0.1205 0.9927 544.0023 64.7984)" class="st5 st1 st29">o</text>
		<text transform="matrix(1.0055 -0.1051 0.1041 0.9946 552.313 63.7886)" class="st5 st1 st30">v</text>
		<text transform="matrix(1.007 -8.907017e-02 8.819006e-02 0.9961 560.9272 62.8906)" class="st5 st1 st29">e</text>
		<text transform="matrix(1.0097 -5.115592e-02 5.066587e-02 0.9987 576.1877 61.6031)" class="st5 st1 st30">L</text>
		<text transform="matrix(1.0106 -2.743330e-02 2.719327e-02 0.9996 592.0806 60.8426)" class="st5 st1 st32">o</text>
		<text transform="matrix(1.0109 -1.073132e-02 1.066131e-02 0.9999 600.4662 60.6122)" class="st5 st1 st31">v</text>
		<text transform="matrix(1.0109 5.410681e-03 -5.310669e-03 1 609.1223 60.5239)" class="st5 st1 st31">e</text>
		<text transform="matrix(1.01 4.341516e-02 -4.291510e-02 0.9991 624.4298 60.6701)" class="st5 st1 st32">L</text>
		<text transform="matrix(1.0087 6.717812e-02 -6.643803e-02 0.9978 640.344 61.3967)" class="st5 st1 st32">o</text>
		<text transform="matrix(1.0075 8.389028e-02 -8.297016e-02 0.9966 648.7217 61.9529)" class="st5 st1 st31">v</text>
		<text transform="matrix(1.006 9.996197e-02 -9.888185e-02 0.9951 657.3339 62.6713)" class="st5 st1 st32">e</text>
		<text transform="matrix(1.0015 0.1378 -0.1363 0.9907 672.5612 64.2485)" class="st5 st1 st31">L</text>
		<text transform="matrix(0.998 0.1614 -0.1597 0.9872 688.3286 66.4623)" class="st5 st1 st33">o</text>
		<text transform="matrix(0.9952 0.178 -0.1761 0.9844 696.614 67.8005)" class="st5 st1 st31">v</text>
		<text transform="matrix(0.9922 0.194 -0.1919 0.9814 705.1456 69.3288)" class="st5 st1 st32">e</text>
		<text transform="matrix(0.9841 0.2314 -0.2289 0.9734 720.1412 72.324)" class="st5 st1 st31">L</text>
		<text transform="matrix(0.9783 0.2547 -0.252 0.9677 735.6431 76.0144)" class="st5 st1 st30">o</text>
		<text transform="matrix(0.9739 0.271 -0.2681 0.9634 743.7552 78.1248)" class="st5 st1 st29">v</text>
		<text transform="matrix(0.9694 0.2867 -0.2837 0.9589 752.0933 80.4476)" class="st5 st1 st27">e</text>
		<text transform="matrix(0.9578 0.3234 -0.32 0.9474 766.736 84.8443)" class="st5 st1 st27">L</text>
		<text transform="matrix(0.9498 0.3462 -0.3426 0.9395 781.829 89.9872)" class="st5 st1 st29">o</text>
		<text transform="matrix(0.9438 0.3621 -0.3583 0.9336 789.6861 92.849)" class="st5 st1 st27">v</text>
		<text transform="matrix(0.9378 0.3774 -0.3735 0.9276 797.7726 95.9554)" class="st5 st1 st28">e</text>
		<text transform="matrix(0.9226 0.4132 -0.4088 0.9126 811.9422 101.7272)" class="st5 st1 st26">L</text>
		<text transform="matrix(0.9124 0.4352 -0.4307 0.9025 826.4662 108.2783)" class="st5 st1 st25">o</text>
		<text transform="matrix(0.9049 0.4506 -0.4459 0.8951 834.0344 111.8879)" class="st5 st1 st24">v</text>
		<text transform="matrix(0.8974 0.4654 -0.4605 0.8877 841.7664 115.7407)" class="st5 st1 st25">e</text>
		<text transform="matrix(0.8788 0.4996 -0.4944 0.8692 855.3254 122.8449)" class="st5 st1 st36">L</text>
		<text transform="matrix(0.8664 0.5208 -0.5153 0.857 869.152 130.7578)" class="st5 st1 st36">o</text>
		<text transform="matrix(0.8574 0.5354 -0.5298 0.8481 876.3371 135.074)" class="st5 st1 st20">v</text>
		<text transform="matrix(0.8485 0.5494 -0.5437 0.8393 883.6828 139.6638)" class="st5 st1 st20">e</text>
		<text transform="matrix(0.8266 0.5818 -0.5758 0.8176 896.4886 148.033)" class="st5 st1 st18">L</text>
		<text transform="matrix(0.8123 0.6017 -0.5954 0.8034 909.4725 157.2265)" class="st5 st1 st19">o</text>
		<text transform="matrix(0.8019 0.6154 -0.609 0.7932 916.2262 162.2272)" class="st5 st1 st17">v</text>
		<text transform="matrix(0.7917 0.6285 -0.6219 0.7831 923.0765 167.4882)" class="st5 st1 st17">e</text>
		<text transform="matrix(0.7668 0.6585 -0.6517 0.7585 935.0178 177.0486)" class="st5 st1 st15">L</text>
		<text transform="matrix(0.7507 0.6768 -0.6698 0.7425 947.0737 187.4607)" class="st5 st1 st15">o</text>
		<text transform="matrix(0.7391 0.6894 -0.6822 0.7311 953.2965 193.0692)" class="st5 st1 st4">v</text>
		<text transform="matrix(0.7278 0.7014 -0.6941 0.7199 959.6281 198.9799)" class="st5 st1 st4">e</text>
		<text transform="matrix(0.7004 0.7287 -0.7211 0.6928 970.5927 209.6343)" class="st5 st1 st4">L</text>
		<text transform="matrix(0.6828 0.7452 -0.7375 0.6754 981.6063 221.1573)" class="st5 st1 st4">o</text>
		<text transform="matrix(0.6703 0.7565 -0.7486 0.663 987.2712 227.3372)" class="st5 st1 st4">v</text>
		<text transform="matrix(0.6608 0.7648 -0.7568 0.6536 993.0051 233.8349)" class="st5 st1 st4">e</text>
		<text transform="matrix(0.6286 0.7915 -0.7832 0.6217 1002.9266 245.4759)" class="st5 st1 st4">L</text>
		<text transform="matrix(0.6096 0.8062 -0.7978 0.6029 1012.8049 257.9853)" class="st5 st1 st4">o</text>
		<text transform="matrix(0.596 0.8162 -0.8078 0.5895 1017.8408 264.6426)" class="st5 st1 st4">v</text>
		<text transform="matrix(0.5827 0.8258 -0.8173 0.5763 1022.9559 271.6518)" class="st5 st1 st4">e</text>
		<text transform="matrix(0.5506 0.8475 -0.8387 0.5446 1031.7205 284.1837)" class="st5 st1 st40">L</text>
		<text transform="matrix(0.53 0.8605 -0.8516 0.5242 1040.3701 297.5795)" class="st5 st1 st40">o</text>
		<text transform="matrix(0.5154 0.8694 -0.8603 0.5097 1044.7476 304.6867)" class="st5 st1 st13">v</text>
		<text transform="matrix(0.501 0.8777 -0.8686 0.4956 1049.1637 312.141)" class="st5 st1 st56">e</text>
		<text transform="matrix(0.4668 0.8964 -0.8871 0.4617 1056.6865 325.4476)" class="st5 st1 st55">L</text>
		<text transform="matrix(0.4449 0.9074 -0.898 0.44 1064.0079 339.6068)" class="st5 st1 st55">o</text>
		<text transform="matrix(0.4294 0.9148 -0.9053 0.4247 1067.6995 347.131)" class="st5 st1 st42">v</text>
		<text transform="matrix(0.4143 0.9218 -0.9122 0.4097 1071.3717 354.9644)" class="st5 st1 st42">e</text>
		<text transform="matrix(0.3783 0.9371 -0.9274 0.3741 1077.5836 368.9387)" class="st5 st1 st43">L</text>
		<text transform="matrix(0.3555 0.946 -0.9362 0.3516 1083.5038 383.7251)" class="st5 st1 st7">o</text>
		<text transform="matrix(0.3394 0.9519 -0.942 0.3357 1086.4479 391.5541)" class="st5 st1 st44">v</text>
		<text transform="matrix(0.3237 0.9573 -0.9474 0.3201 1089.3564 399.7181)" class="st5 st1 st44">e</text>
		<text transform="matrix(0.2865 0.9691 -0.959 0.2833 1094.1974 414.2426)" class="st5 st1 st46">L</text>
		<text transform="matrix(0.263 0.9757 -0.9656 0.2601 1098.6694 429.526)" class="st5 st1 st57">o</text>
		<text transform="matrix(0.2465 0.98 -0.9698 0.2438 1100.8495 437.6081)" class="st5 st1 st58">v</text>
		<text transform="matrix(0.2305 0.9839 -0.9737 0.2279 1102.9583 446.0029)" class="st5 st1 st46">e</text>
		<text transform="matrix(0.1926 0.992 -0.9817 0.1905 1106.3837 460.8978)" class="st5 st1 st48">L</text>
		<text transform="matrix(0.1687 0.9963 -0.986 0.1669 1109.3799 476.5667)" class="st5 st1 st48">o</text>
		<text transform="matrix(0.152 0.999 -0.9886 0.1503 1110.7808 484.8262)" class="st5 st1 st49">v</text>
		<text transform="matrix(0.1358 1.0013 -0.9909 0.1343 1112.0782 493.3701)" class="st5 st1 st51">e</text>
		<text transform="matrix(9.758864e-02 1.0058 -0.9953 9.648876e-02 1114.0686 508.5158)" class="st5 st1 st51">L</text>
		<text transform="matrix(7.360109e-02 1.0078 -0.9973 7.276120e-02 1115.563 524.3837)" class="st5 st1 st52">o</text>
		<text transform="matrix(5.674296e-02 1.0089 -0.9984 5.608304e-02 1116.1761 532.759)" class="st5 st1 st52">v</text>
		<text transform="matrix(4.049510e-02 1.0097 -0.9992 4.001516e-02 1116.6599 541.3911)" class="st5 st1 st52">e</text>
		<text transform="matrix(2.219728e-03 1.0105 -1 2.159736e-03 1117.2078 556.6899)" class="st5 st1 st52">L</text>
		<text transform="matrix(-2.166738e-02 1.0102 -0.9998 -2.147741e-02 1117.2007 572.6097)" class="st5 st1 st50">o</text>
		<text transform="matrix(-3.845517e-02 1.0097 -0.9993 -3.808522e-02 1117.0222 580.9985)" class="st5 st1 st53">v</text>
		<text transform="matrix(-5.460330e-02 1.009 -0.9985 -5.406336e-02 1116.6896 589.6318)" class="st5 st1 st52">e</text>
		<text transform="matrix(-9.259814e-02 1.0062 -0.9958 -9.163825e-02 1115.8018 604.9119)" class="st5 st1 st53">L</text>
		<text transform="matrix(-0.1163 1.0037 -0.9934 -0.1151 1114.2977 620.7632)" class="st5 st1 st52">o</text>
		<text transform="matrix(-0.1329 1.0017 -0.9913 -0.1315 1113.3344 629.104)" class="st5 st1 st53">v</text>
		<text transform="matrix(-0.1489 0.9994 -0.9891 -0.1473 1112.194 637.6765)" class="st5 st1 st52">e</text>
		<text transform="matrix(-0.1863 0.9931 -0.9829 -0.1843 1109.8792 652.7849)" class="st5 st1 st50">L</text>
		<text transform="matrix(-0.2097 0.9885 -0.9782 -0.2074 1106.8958 668.451)" class="st5 st1 st53">o</text>
		<text transform="matrix(-0.226 0.9849 -0.9747 -0.2236 1105.1626 676.6379)" class="st5 st1 st52">v</text>
		<text transform="matrix(-0.2416 0.9812 -0.971 -0.2391 1103.2244 685.0615)" class="st5 st1 st50">e</text>
		<text transform="matrix(-0.2784 0.9714 -0.9613 -0.2754 1099.4989 699.9239)" class="st5 st1 st51">L</text>
		<text transform="matrix(-0.3012 0.9646 -0.9546 -0.2979 1095.0737 715.2147)" class="st5 st1 st49">o</text>
		<text transform="matrix(-0.3171 0.9595 -0.9495 -0.3137 1092.5798 723.215)" class="st5 st1 st48">v</text>
		<text transform="matrix(-0.3324 0.9543 -0.9444 -0.3288 1089.8605 731.4329)" class="st5 st1 st47">e</text>
		<text transform="matrix(-0.368 0.9411 -0.9314 -0.3641 1084.7692 745.8555)" class="st5 st1 st49">L</text>
		<text transform="matrix(-0.3901 0.9322 -0.9225 -0.3859 1078.926 760.6833)" class="st5 st1 st58">o</text>
		<text transform="matrix(-0.4055 0.9256 -0.916 -0.4012 1075.6899 768.4139)" class="st5 st1 st46">v</text>
		<text transform="matrix(-0.4202 0.919 -0.9095 -0.4157 1072.2238 776.3214)" class="st5 st1 st58">e</text>
	</g>
</g>
</svg>
