<?xml version="1.0" encoding="utf-8"?>
<!-- Generator: Adobe Illustrator 25.2.1, SVG Export Plug-In . SVG Version: 6.00 Build 0)  -->
<svg version="1.1" id="Layer_1" xmlns="http://www.w3.org/2000/svg" xmlns:xlink="http://www.w3.org/1999/xlink" x="0px" y="0px"
	 viewBox="0 0 64.4 16.3" style="enable-background:new 0 0 64.4 16.3;" xml:space="preserve">
<style type="text/css">
	.st0{fill:#FFFFFF;}
</style>
<g id="fg_5_">
	<path class="st0" d="M5.9,0.5H3.5c-0.1,0-0.1,0-0.2,0.1C3.3,0.6,3.2,0.7,3.2,0.8v13.1h-1V0.8c0-0.2-0.1-0.3-0.3-0.3H0.5
		c-0.2,0-0.3,0.1-0.3,0.3v13.3c0,0.1,0.1,0.3,0.3,0.3c0.2,0,0.3-0.1,0.3-0.3c0,0,0,0,0,0V1.1h1v13.1c0,0.2,0.1,0.3,0.3,0.3h1.5
		c0.2,0,0.3-0.1,0.3-0.3V1.3c0-0.1,0.1-0.2,0.2-0.2l0,0h1.9c2.4,0,4.4,2,4.4,4.4c0,0,0,0.1,0,0.1C10.3,8,8.4,10,6,10.1
		c0,0-0.1,0-0.1,0H5.3V9.2h0.2c2,0,3.6-1.6,3.6-3.6c0-2.1-1.6-3.7-3.7-3.7H5.1C4.9,1.9,4.8,2,4.8,2.2v1.5c0,0.1,0.1,0.2,0.1,0.2
		C5,4,5,4,5.1,4h0.3c0.8,0,1.5,0.7,1.5,1.5c0,0.8-0.6,1.6-1.4,1.6c0,0,0,0-0.1,0H5.1c-0.2,0-0.3,0.1-0.3,0.3c0,0.2,0.1,0.3,0.3,0.3
		c0,0,0,0,0,0h0.3c1.1,0,2-0.9,2.1-2c0-1.2-0.9-2.1-2-2.1c0,0,0,0,0,0H5.4v-1h0.2c1.7,0,3.1,1.4,3.1,3.1c0,0,0,0,0,0
		c0,1.7-1.4,3.1-3.1,3H5.1C4.9,8.7,4.8,8.8,4.8,9v1.4c0,0.2,0.1,0.3,0.3,0.3c0,0,0,0,0,0h0.8c2.7,0,4.9-2.2,4.9-5c0,0,0-0.1,0-0.1
		c0.1-2.7-2.1-5-4.8-5.1C5.9,0.5,5.9,0.5,5.9,0.5z"/>
	<g>
		<g>
			<path class="st0" d="M14.3,0.5h1.9c1.3,0,2.3,0.5,2.3,1.8c0,1.3-1,1.9-2.2,1.9h-0.8v2.2h-1V0.5z M16.1,3.4c0.9,0,1.3-0.3,1.3-1.1
				c0-0.7-0.5-1-1.3-1h-0.7v2.1H16.1z"/>
			<path class="st0" d="M19.2,4.1c0-1.5,1-2.3,2.1-2.3c1.1,0,2.1,0.9,2.1,2.3c0,1.5-1,2.3-2.1,2.3C20.2,6.5,19.2,5.6,19.2,4.1z
				 M22.3,4.1c0-0.9-0.4-1.5-1-1.5c-0.6,0-1,0.6-1,1.5s0.4,1.5,1,1.5C21.9,5.6,22.3,5,22.3,4.1z"/>
			<path class="st0" d="M24,1.9h1l0.5,2.3c0.1,0.4,0.2,0.8,0.2,1.3h0c0.1-0.4,0.2-0.9,0.3-1.3l0.6-2.3h0.9l0.6,2.3
				c0.1,0.4,0.2,0.8,0.3,1.3h0c0.1-0.4,0.2-0.8,0.2-1.3l0.5-2.3h1l-1.1,4.4h-1.2l-0.5-2.1c-0.1-0.4-0.2-0.8-0.3-1.3h0
				c-0.1,0.5-0.2,0.9-0.3,1.3l-0.5,2.1h-1.2L24,1.9z"/>
			<path class="st0" d="M30.9,4.1c0-1.4,1-2.3,2-2.3c1.2,0,1.8,0.9,1.8,2.1c0,0.2,0,0.4,0,0.5h-2.8c0.1,0.8,0.6,1.2,1.3,1.2
				c0.4,0,0.7-0.1,1-0.3L34.6,6c-0.4,0.3-1,0.5-1.5,0.5C31.8,6.5,30.9,5.6,30.9,4.1z M33.8,3.7c0-0.7-0.3-1.1-0.9-1.1
				c-0.5,0-1,0.4-1.1,1.1H33.8z"/>
			<path class="st0" d="M35.7,1.9h0.8l0.1,0.8h0c0.3-0.6,0.8-0.9,1.3-0.9c0.2,0,0.4,0,0.5,0.1l-0.2,0.9c-0.2,0-0.3-0.1-0.5-0.1
				c-0.4,0-0.8,0.2-1,0.9v2.7h-1V1.9z"/>
			<path class="st0" d="M38.8,5.6l0.6-0.7c0.4,0.4,1,0.7,1.5,0.7c0.7,0,1-0.3,1-0.8c0-0.5-0.4-0.6-0.9-0.9l-0.8-0.3
				C39.6,3.3,39,2.9,39,2c0-0.9,0.8-1.7,2-1.7c0.7,0,1.4,0.3,1.8,0.8l-0.5,0.7c-0.4-0.3-0.8-0.5-1.3-0.5c-0.6,0-0.9,0.3-0.9,0.7
				c0,0.5,0.4,0.6,0.9,0.8l0.8,0.3C42.5,3.4,43,3.9,43,4.7c0,1-0.8,1.8-2.1,1.8C40.1,6.5,39.3,6.2,38.8,5.6z"/>
			<path class="st0" d="M43.7,4.1c0-1.5,1-2.3,2.2-2.3c0.6,0,1,0.2,1.3,0.5L46.7,3c-0.2-0.2-0.5-0.3-0.7-0.3c-0.7,0-1.2,0.6-1.2,1.5
				s0.5,1.5,1.2,1.5c0.3,0,0.7-0.2,0.9-0.4l0.4,0.7c-0.4,0.4-0.9,0.5-1.4,0.5C44.6,6.5,43.7,5.6,43.7,4.1z"/>
			<path class="st0" d="M48.1,0h1v1.6l0,0.9c0.4-0.3,0.8-0.7,1.4-0.7c0.9,0,1.4,0.6,1.4,1.8v2.8h-1V3.7c0-0.7-0.2-1-0.7-1
				c-0.4,0-0.6,0.2-1,0.6v3.1h-1V0z"/>
			<path class="st0" d="M52.9,4.1c0-1.5,1-2.3,2.1-2.3c1.1,0,2.1,0.9,2.1,2.3c0,1.5-1,2.3-2.1,2.3C53.9,6.5,52.9,5.6,52.9,4.1z
				 M56,4.1c0-0.9-0.4-1.5-1-1.5c-0.6,0-1,0.6-1,1.5s0.4,1.5,1,1.5C55.6,5.6,56,5,56,4.1z"/>
			<path class="st0" d="M57.8,4.1c0-1.5,1-2.3,2.1-2.3C61,1.8,62,2.7,62,4.1c0,1.5-1,2.3-2.1,2.3C58.8,6.5,57.8,5.6,57.8,4.1z
				 M61,4.1c0-0.9-0.4-1.5-1-1.5c-0.6,0-1,0.6-1,1.5s0.4,1.5,1,1.5C60.6,5.6,61,5,61,4.1z"/>
			<path class="st0" d="M63,5.2V0h1v5.3c0,0.3,0.1,0.3,0.2,0.3c0,0,0.1,0,0.2,0l0.1,0.8c-0.1,0.1-0.3,0.1-0.5,0.1
				C63.3,6.5,63,6,63,5.2z"/>
			<path class="st0" d="M14.3,11.8V8.5h1v3.4c0,1.3,0.5,1.7,1.2,1.7c0.7,0,1.2-0.4,1.2-1.7V8.5h1v3.3c0,1.9-0.9,2.7-2.2,2.7
				C15.2,14.5,14.3,13.7,14.3,11.8z"/>
			<path class="st0" d="M20.1,9.9H21l0.1,0.6h0c0.4-0.4,0.8-0.7,1.5-0.7c0.9,0,1.4,0.6,1.4,1.8v2.8h-1v-2.6c0-0.7-0.2-1-0.7-1
				c-0.4,0-0.6,0.2-1,0.6v3.1h-1V9.9z"/>
			<path class="st0" d="M25.1,8.6c0-0.3,0.3-0.6,0.6-0.6c0.4,0,0.6,0.2,0.6,0.6c0,0.3-0.3,0.6-0.6,0.6C25.3,9.2,25.1,8.9,25.1,8.6z
				 M25.2,9.9h1v4.4h-1V9.9z"/>
			<path class="st0" d="M27,9.9H28l0.7,2.3c0.1,0.4,0.3,0.9,0.4,1.3h0c0.1-0.4,0.3-0.9,0.4-1.3l0.7-2.3h1l-1.5,4.4h-1.2L27,9.9z"/>
			<path class="st0" d="M31.7,12.1c0-1.4,1-2.3,2-2.3c1.2,0,1.8,0.9,1.8,2.1c0,0.2,0,0.4,0,0.5h-2.8c0.1,0.8,0.6,1.2,1.3,1.2
				c0.4,0,0.7-0.1,1-0.3l0.4,0.6c-0.4,0.3-1,0.5-1.5,0.5C32.7,14.5,31.7,13.6,31.7,12.1z M34.7,11.7c0-0.7-0.3-1.1-0.9-1.1
				c-0.5,0-1,0.4-1.1,1.1H34.7z"/>
			<path class="st0" d="M36.6,9.9h0.8l0.1,0.8h0c0.3-0.6,0.8-0.9,1.3-0.9c0.2,0,0.4,0,0.5,0.1l-0.2,0.9c-0.2,0-0.3-0.1-0.5-0.1
				c-0.4,0-0.8,0.2-1,0.9v2.7h-1V9.9z"/>
			<path class="st0" d="M39.5,13.8l0.5-0.7c0.4,0.3,0.8,0.5,1.2,0.5c0.5,0,0.7-0.2,0.7-0.5c0-0.4-0.5-0.5-1-0.7
				c-0.6-0.2-1.2-0.6-1.2-1.3c0-0.8,0.6-1.3,1.6-1.3c0.6,0,1.1,0.2,1.5,0.5L42.3,11c-0.3-0.2-0.6-0.4-1-0.4c-0.4,0-0.7,0.2-0.7,0.5
				c0,0.3,0.4,0.5,0.9,0.7c0.6,0.2,1.3,0.5,1.3,1.3c0,0.8-0.6,1.4-1.7,1.4C40.5,14.5,39.9,14.2,39.5,13.8z"/>
			<path class="st0" d="M43.7,8.6C43.7,8.2,44,8,44.3,8C44.7,8,45,8.2,45,8.6c0,0.3-0.3,0.6-0.6,0.6C44,9.2,43.7,8.9,43.7,8.6z
				 M43.8,9.9h1v4.4h-1V9.9z"/>
			<path class="st0" d="M46.3,12.9v-2.1h-0.6V10l0.7,0l0.1-1.2h0.9v1.2h1.1v0.8h-1.1v2.1c0,0.5,0.2,0.8,0.6,0.8
				c0.2,0,0.3-0.1,0.5-0.1l0.2,0.8c-0.2,0.1-0.5,0.2-0.9,0.2C46.7,14.5,46.3,13.8,46.3,12.9z"/>
			<path class="st0" d="M49.1,16.1l0.2-0.8c0.1,0,0.2,0.1,0.3,0.1c0.5,0,0.7-0.3,0.9-0.8l0.1-0.3l-1.7-4.4h1.1l0.8,2.2
				c0.1,0.4,0.3,0.8,0.4,1.2h0c0.1-0.4,0.2-0.8,0.3-1.2l0.7-2.2h1l-1.6,4.6c-0.4,1-0.8,1.6-1.8,1.6C49.5,16.2,49.3,16.1,49.1,16.1z"
				/>
		</g>
	</g>
</g>
</svg>
