<?xml version="1.0" encoding="utf-8"?>
<!-- Generator: Adobe Illustrator 25.2.1, SVG Export Plug-In . SVG Version: 6.00 Build 0)  -->
<svg version="1.1" id="Layer_1" xmlns="http://www.w3.org/2000/svg" xmlns:xlink="http://www.w3.org/1999/xlink" x="0px" y="0px"
	 viewBox="0 0 65.3 65.3" style="enable-background:new 0 0 65.3 65.3;" xml:space="preserve">
<style type="text/css">
	.st0{fill:#00B6EF;}
	.st1{fill:#FFFFFF;}
</style>
<rect y="-0.5" class="st0" width="65.3" height="66.2"/>
<g id="fg_5_">
	<path class="st1" d="M8,25.9H5.8c-0.1,0-0.1,0-0.2,0c-0.1,0-0.1,0.1-0.1,0.2v12.2H4.6V26.2c0-0.1-0.1-0.3-0.3-0.3H2.9
		c-0.1,0-0.3,0.1-0.3,0.3v12.4c0,0.1,0.1,0.3,0.2,0.3c0.1,0,0.3-0.1,0.3-0.2c0,0,0,0,0,0V26.4h0.9v12.2c0,0.1,0.1,0.3,0.3,0.3h1.4
		c0.1,0,0.3-0.1,0.3-0.3v-12c0-0.1,0.1-0.2,0.2-0.2l0,0H8c2.2,0,4.1,1.8,4.1,4.1c0,0,0,0.1,0,0.1c0,2.3-1.7,4.2-4,4.2
		c0,0-0.1,0-0.1,0H7.5V34h0.2c1.8,0,3.3-1.5,3.4-3.4c0-1.9-1.5-3.5-3.4-3.5H7.2c-0.1,0-0.3,0.1-0.3,0.3v1.4C7,29,7,29,7.1,29.1
		c0,0,0.1,0.1,0.2,0.1h0.3c0.8,0,1.4,0.6,1.4,1.4C9,31.3,8.4,32,7.6,32c0,0,0,0-0.1,0H7.3C7.1,32,7,32.1,7,32.3
		c0,0.1,0.1,0.3,0.3,0.3c0,0,0,0,0,0h0.3c1,0,1.9-0.8,2-1.9c0-1.1-0.8-2-1.9-2c0,0,0,0,0,0H7.5v-0.9h0.2c1.6,0,2.9,1.3,2.9,2.9
		c0,0,0,0,0,0c0,1.6-1.3,2.9-2.9,2.8H7.2c-0.1,0-0.3,0.1-0.3,0.3v1.3c0,0.1,0.1,0.3,0.3,0.3c0,0,0,0,0,0H8c2.5,0,4.6-2.1,4.6-4.6
		c0,0,0-0.1,0-0.1c0.1-2.6-2-4.7-4.5-4.7C8.1,25.9,8,25.9,8,25.9z"/>
	<g>
		<g>
			<path class="st1" d="M15.9,25.9h1.7c1.2,0,2.1,0.4,2.1,1.7c0,1.2-0.9,1.8-2.1,1.8h-0.8v2h-1V25.9z M17.6,28.6
				c0.8,0,1.2-0.3,1.2-1c0-0.7-0.4-0.9-1.2-0.9h-0.7v1.9H17.6z"/>
			<path class="st1" d="M20.4,29.3c0-1.4,0.9-2.2,2-2.2c1,0,2,0.8,2,2.2c0,1.4-0.9,2.2-2,2.2C21.3,31.4,20.4,30.7,20.4,29.3z
				 M23.3,29.3c0-0.8-0.4-1.4-1-1.4c-0.6,0-1,0.6-1,1.4c0,0.8,0.4,1.4,1,1.4C23,30.7,23.3,30.1,23.3,29.3z"/>
			<path class="st1" d="M24.9,27.2h1l0.5,2.1c0.1,0.4,0.1,0.8,0.2,1.2h0c0.1-0.4,0.2-0.8,0.3-1.2l0.5-2.1h0.9l0.6,2.1
				c0.1,0.4,0.2,0.8,0.3,1.2h0c0.1-0.4,0.1-0.8,0.2-1.2l0.5-2.1h0.9l-1,4.1h-1.1l-0.5-1.9c-0.1-0.4-0.2-0.8-0.2-1.2h0
				c-0.1,0.4-0.2,0.8-0.2,1.2l-0.5,1.9H26L24.9,27.2z"/>
			<path class="st1" d="M31.3,29.3c0-1.3,0.9-2.2,1.9-2.2c1.1,0,1.7,0.8,1.7,2c0,0.2,0,0.4,0,0.5h-2.6c0.1,0.7,0.6,1.1,1.2,1.1
				c0.4,0,0.7-0.1,1-0.3l0.3,0.6c-0.4,0.3-0.9,0.4-1.4,0.4C32.2,31.4,31.3,30.7,31.3,29.3z M34.1,28.9c0-0.6-0.3-1-0.8-1
				c-0.5,0-0.9,0.4-1,1H34.1z"/>
			<path class="st1" d="M35.8,27.2h0.8l0.1,0.7h0c0.3-0.5,0.7-0.8,1.2-0.8c0.2,0,0.3,0,0.5,0.1L38.2,28C38,28,37.9,28,37.8,28
				c-0.3,0-0.7,0.2-1,0.9v2.5h-1V27.2z"/>
			<path class="st1" d="M38.7,30.6l0.6-0.7c0.4,0.4,0.9,0.6,1.4,0.6c0.6,0,1-0.3,1-0.7c0-0.5-0.4-0.6-0.9-0.8L40,28.8
				c-0.5-0.2-1.1-0.7-1.1-1.5c0-0.9,0.8-1.5,1.8-1.5c0.6,0,1.3,0.3,1.7,0.7l-0.5,0.6c-0.3-0.3-0.7-0.5-1.2-0.5
				c-0.5,0-0.9,0.2-0.9,0.6c0,0.4,0.4,0.6,0.9,0.8l0.7,0.3c0.7,0.3,1.1,0.7,1.1,1.5c0,0.9-0.7,1.6-2,1.6
				C39.9,31.4,39.2,31.2,38.7,30.6z"/>
			<path class="st1" d="M43.2,29.3c0-1.4,1-2.2,2.1-2.2c0.5,0,0.9,0.2,1.2,0.5L46,28.2c-0.2-0.2-0.4-0.3-0.7-0.3
				c-0.7,0-1.1,0.6-1.1,1.4c0,0.8,0.5,1.4,1.1,1.4c0.3,0,0.6-0.2,0.9-0.4l0.4,0.6c-0.4,0.3-0.9,0.5-1.3,0.5
				C44.1,31.4,43.2,30.7,43.2,29.3z"/>
			<path class="st1" d="M47.4,25.4h1V27l0,0.8c0.3-0.3,0.8-0.6,1.3-0.6c0.9,0,1.3,0.6,1.3,1.6v2.6h-1v-2.5c0-0.7-0.2-0.9-0.6-0.9
				c-0.4,0-0.6,0.2-0.9,0.5v2.9h-1V25.4z"/>
			<path class="st1" d="M51.8,29.3c0-1.4,0.9-2.2,2-2.2s2,0.8,2,2.2c0,1.4-0.9,2.2-2,2.2S51.8,30.7,51.8,29.3z M54.7,29.3
				c0-0.8-0.4-1.4-1-1.4s-1,0.6-1,1.4c0,0.8,0.4,1.4,1,1.4S54.7,30.1,54.7,29.3z"/>
			<path class="st1" d="M56.4,29.3c0-1.4,0.9-2.2,2-2.2s2,0.8,2,2.2c0,1.4-0.9,2.2-2,2.2S56.4,30.7,56.4,29.3z M59.3,29.3
				c0-0.8-0.4-1.4-1-1.4s-1,0.6-1,1.4c0,0.8,0.4,1.4,1,1.4S59.3,30.1,59.3,29.3z"/>
			<path class="st1" d="M61.3,30.3v-4.9h1v4.9c0,0.2,0.1,0.3,0.2,0.3c0,0,0.1,0,0.2,0l0.1,0.7c-0.1,0-0.3,0.1-0.5,0.1
				C61.5,31.4,61.3,31,61.3,30.3z"/>
			<path class="st1" d="M15.9,36.4v-3.1h1v3.2c0,1.2,0.4,1.6,1.1,1.6c0.7,0,1.1-0.4,1.1-1.6v-3.2H20v3.1c0,1.8-0.8,2.5-2.1,2.5
				C16.7,38.9,15.9,38.2,15.9,36.4z"/>
			<path class="st1" d="M21.3,34.7h0.8l0.1,0.6h0c0.4-0.4,0.8-0.7,1.4-0.7c0.9,0,1.3,0.6,1.3,1.6v2.6h-1v-2.5c0-0.7-0.2-0.9-0.6-0.9
				c-0.4,0-0.6,0.2-0.9,0.5v2.9h-1V34.7z"/>
			<path class="st1" d="M25.9,33.4c0-0.3,0.3-0.5,0.6-0.5s0.6,0.2,0.6,0.5c0,0.3-0.3,0.5-0.6,0.5S25.9,33.7,25.9,33.4z M26,34.7h1
				v4.1h-1V34.7z"/>
			<path class="st1" d="M27.7,34.7h1l0.7,2.1c0.1,0.4,0.2,0.8,0.3,1.2h0c0.1-0.4,0.2-0.8,0.3-1.2l0.7-2.1h0.9l-1.4,4.1h-1.1
				L27.7,34.7z"/>
			<path class="st1" d="M32.1,36.7c0-1.3,0.9-2.2,1.9-2.2c1.1,0,1.7,0.8,1.7,2c0,0.2,0,0.4,0,0.5H33c0.1,0.7,0.6,1.1,1.2,1.1
				c0.4,0,0.7-0.1,1-0.3l0.3,0.6c-0.4,0.3-0.9,0.4-1.4,0.4C33,38.9,32.1,38.1,32.1,36.7z M34.8,36.4c0-0.6-0.3-1-0.8-1
				c-0.5,0-0.9,0.4-1,1H34.8z"/>
			<path class="st1" d="M36.6,34.7h0.8l0.1,0.7h0c0.3-0.5,0.7-0.8,1.2-0.8c0.2,0,0.3,0,0.5,0.1L39,35.5c-0.1,0-0.3-0.1-0.4-0.1
				c-0.3,0-0.7,0.2-1,0.9v2.5h-1V34.7z"/>
			<path class="st1" d="M39.3,38.3l0.4-0.6c0.4,0.3,0.7,0.5,1.1,0.5c0.4,0,0.7-0.2,0.7-0.5c0-0.3-0.4-0.5-0.9-0.7
				c-0.5-0.2-1.2-0.5-1.2-1.2c0-0.7,0.6-1.2,1.5-1.2c0.6,0,1,0.2,1.4,0.5l-0.4,0.6c-0.3-0.2-0.6-0.4-0.9-0.4c-0.4,0-0.6,0.2-0.6,0.5
				c0,0.3,0.4,0.5,0.9,0.6c0.6,0.2,1.2,0.5,1.2,1.2c0,0.7-0.6,1.3-1.6,1.3C40.3,38.9,39.7,38.7,39.3,38.3z"/>
			<path class="st1" d="M43.2,33.4c0-0.3,0.3-0.5,0.6-0.5c0.3,0,0.6,0.2,0.6,0.5c0,0.3-0.3,0.5-0.6,0.5C43.5,34,43.2,33.7,43.2,33.4
				z M43.3,34.7h1v4.1h-1V34.7z"/>
			<path class="st1" d="M45.7,37.4v-2h-0.6v-0.7l0.6,0l0.1-1.1h0.8v1.1h1.1v0.8h-1.1v2c0,0.5,0.2,0.7,0.6,0.7c0.1,0,0.3,0,0.4-0.1
				l0.2,0.7c-0.2,0.1-0.5,0.2-0.8,0.2C46,38.9,45.7,38.3,45.7,37.4z"/>
			<path class="st1" d="M48.3,40.4l0.2-0.7c0.1,0,0.2,0.1,0.3,0.1c0.4,0,0.7-0.3,0.8-0.7l0.1-0.3l-1.6-4.1h1l0.7,2
				c0.1,0.4,0.2,0.8,0.4,1.2h0c0.1-0.4,0.2-0.8,0.3-1.2l0.6-2H52L50.5,39c-0.3,0.9-0.8,1.5-1.7,1.5C48.6,40.5,48.5,40.5,48.3,40.4z"
				/>
		</g>
	</g>
</g>
</svg>
