<svg xmlns="http://www.w3.org/2000/svg" width="704.08199" height="511.03532" viewBox="0 0 704.08199 511.03532">
  <defs>
    <style>
      .cls-1 {
        fill: #c78b74;
      }
    </style>
  </defs>
  <g id="Layer_3" data-name="Layer 3">
    <g>
      <path class="cls-1" d="M322.32123,496.04864" transform="translate(-35.75566 -33.95367)"/>
      <path class="cls-1" d="M739.83765,35.95367C616.14259,108.25238,541.484,107.03488,495.1067,89.68474c-17.96277-6.72-58.5968-28.15651-97.5481-12.81263-26.09741,10.28041-39.65918,32.26461-42.80749,37.67992-20.78748,35.75595-10.79285,77.11819-7.61792,77.41217.89355.08273,3.18359-4.24042,5.2666-13.56433,3.98071-17.81821,9.2594-28.38126,11.8739-34.48572,11.20019-26.15076,36.94092-38.05087,39.24109-39.07565A79.85093,79.85093,0,0,1,439.705,98.57713c3.62659.21346,29.08606,1.957,49.77661,20.84322,1.59083,1.45208,2.80323,2.66607,3.61658,3.49157.00012.00006,19.40149,17.65308,23.00916,44.82224,6.49853,48.93948-38.6648,94.39-72.94336,128.88635-.00012.00006-47.61829,47.82379-70.26026,75.026-3.22863,3.87891-9.57641,11.59491-16.96252,22.119a358.47806,358.47806,0,0,0-21.17139,34.3183,164.99124,164.99124,0,0,0-14.57715,36.1c-11.10681,40.99958-4.49157,80.655-.27746,80.80481,3.78747.13471-1.10877-35.97662,16.66614-80.72491,14.38525-36.21478,36.07776-59.12067,67.47265-91.6424,38.39966-39.77777,48.39344-38.65741,85.144-79.738,21.88183-24.46,36.0924-40.61191,47.30212-66.223,15.71728-35.9097,16.39185-69.52582,14.97412-90.28785A331.61939,331.61939,0,0,0,667.07447,94.48091,330.166,330.166,0,0,0,739.83765,35.95367Z" transform="translate(-35.75566 -33.95367)"/>
    </g>
  </g>
  <g id="Layer_4" data-name="Layer 4">
    <path class="cls-1" d="M87.47315,188.44839c79.63965,103.45581,124.39417,150.19092,150.85254,173.57.00012.00006,73.53137,64.97363,86.12756,96.52392.53235,1.3335,4.03174,10.63465,6.81092,10.21637,1.25549-.189,1.99438-2.3081,2.42846-4.1336q.01008-.81454.01368-1.6405.00384-.87882,0-1.74482c-.006-.50848-.00135-1.28277.06115-2.22442.09937-1.49835.276-2.37519.48767-3.94379,0-.00012.10852-.76691.3794-3.522,3.47546-35.34876-95.1449-130.58542-95.145-130.58548-14.32141-14.44577-26.34277-26.90439-36.19421-39.17716-9.21277-11.47714-16.61951-22.14111-23.17383-38.06219a134.139,134.139,0,0,1-9.44739-36.38129c-1.23621-11.88037-2.87805-27.65823,3.97546-45.911,2.37928-6.33682,10.08533-25.99011,31.16223-39.496,21.788-13.96158,44.08533-12.524,53.01294-11.32364,22.58753,3.037,37.275,14.77826,47.02918,23.16873.00012.00009,17.14868,14.68649,33.73621,45.05847,2.85583,5.2291,5.35852,10.5799,5.35852,10.58,1.00891,2.1572,1.82946,4.01767,2.44287,5.44516.759,2.06448,1.26709,2.46054,1.59314,2.43106.92627-.0838,1.17016-3.67389,2.29162-11.52,1.00611-7.039,1.08216-6.05511,1.12354-7.37628.03845-1.22727.26172-2.82-4.04553-16.003-2.67542-8.18857-3.53687-10.51785-4.67334-13.22254q-1.20338-2.864-2.60242-5.76522c-3.42835-7.0933-20.35059-40.33628-57.21338-57.25a107.35612,107.35612,0,0,0-10.71167-4.23485q-3.48761-1.121-6.9751-2.242a88.0174,88.0174,0,0,0-8.90442-1.52053c-.00012,0-33.61963-4.26918-64.47339,15.21714-44.97119,28.40247-47.45239,89.84714-47.56555,94.25345L54.25147,35.63968c-.28833-.37012-.58252-.73523-.89428-1.08606-.05152-.02869-.1001-.06226-.15186-.0904-.16553-.07531-.333-.14483-.5-.21569a7.58766,7.58766,0,0,0-1.49463-.29108,3.80051,3.80051,0,0,0-.49512.01416c-.40649.11047-.79968.2218-1.12964.32654-.07714.046-.15673.08777-.23767.1264-.027.0163-.05444.03015-.08117.04742-.06153.06025-.12293.12018-.17945.18512-.22387.33942-.417.6969-.60717,1.05634-.25342.57794-.49829,1.21368-.73511,1.88177-.06043.21393-.12915.42548-.17566.64332l-.00012.00036c-.03955.291-.07715.58246-.14539.86774-.11389.47711-.18811.96173-.296,1.43994-.02661.11743-.06616.23212-.10107.34778.00012.01752-.00147.035-.00122.05249a.54034.54034,0,0,1-.03028.15271C35.40614,99.69449,15.87171,243.036,90.5481,388.207a488.66114,488.66114,0,0,0,65.87342,97.07983c.14441.1662,12.95385,14.34155,12.955,14.34284a3.60674,3.60674,0,0,0,.74573.074c1.595-.93158-11.37976-24.0094-11.37976-24.00946s-6.47693-11.52038-24.60864-50.08447c-10.17005-21.63037-14.91248-38.25208-22.51111-64.884a632.1487,632.1487,0,0,1-19.8418-98.2641A614.10412,614.10412,0,0,1,87.47315,188.44839Z" transform="translate(-35.75566 -33.95367)"/>
  </g>
</svg>
